<?xml version="1.0" encoding="utf-8"?>
<!-- Generator: Adobe Illustrator 21.1.0, SVG Export Plug-In . SVG Version: 6.00 Build 0)  -->
<svg version="1.1" id="圖層_1" xmlns="http://www.w3.org/2000/svg" xmlns:xlink="http://www.w3.org/1999/xlink" x="0px" y="0px"
	 viewBox="0 0 16 16" style="enable-background:new 0 0 16 16;" xml:space="preserve">
<style type="text/css">
	.st0{fill:#8E8E8E;}
</style>
<g>
	<g>
		<path class="st0" d="M13.1,1H2.9C1.8,1,1,1.8,1,2.9v10.3c0,1,0.8,1.9,1.9,1.9h10.3c1,0,1.9-0.8,1.9-1.9V2.9C15,1.8,14.2,1,13.1,1z
			 M13.8,13.1c0,0.3-0.3,0.6-0.6,0.6H2.9c-0.3,0-0.6-0.3-0.6-0.6V2.9c0-0.3,0.3-0.6,0.6-0.6h10.3c0.3,0,0.6,0.3,0.6,0.6V13.1z
			 M11.8,4.5H4.2c-0.4,0-0.6,0.3-0.6,0.6s0.3,0.6,0.6,0.6h7.7c0.4,0,0.6-0.3,0.6-0.6S12.2,4.5,11.8,4.5z M11.8,7.4H4.2
			C3.8,7.4,3.5,7.6,3.5,8s0.3,0.6,0.6,0.6h7.7c0.4,0,0.6-0.3,0.6-0.6S12.2,7.4,11.8,7.4z M11.8,10.2H4.2c-0.4,0-0.6,0.3-0.6,0.6
			s0.3,0.6,0.6,0.6h7.7c0.4,0,0.6-0.3,0.6-0.6S12.2,10.2,11.8,10.2z"/>
	</g>
</g>
</svg>
