<?xml version="1.0" encoding="utf-8"?>
<!-- Generator: Adobe Illustrator 21.1.0, SVG Export Plug-In . SVG Version: 6.00 Build 0)  -->
<svg version="1.1" id="圖層_1" xmlns="http://www.w3.org/2000/svg" xmlns:xlink="http://www.w3.org/1999/xlink" x="0px" y="0px"
	 viewBox="0 0 48 48" style="enable-background:new 0 0 48 48;" xml:space="preserve">
<style type="text/css">
	.st0{fill-rule:evenodd;clip-rule:evenodd;fill:#8E8E8E;}
	.st1{fill:#FFFFFF;}
</style>
<circle class="st0" cx="24" cy="24" r="24"/>
<g>
	<g>
		<path class="st1" d="M17.6,30.4c0.2,0.2,0.5,0.3,0.7,0.3c0.3,0,0.5-0.1,0.7-0.3L30.4,19c0.4-0.4,0.4-1,0-1.4s-1-0.4-1.4,0L17.6,29
			C17.2,29.4,17.2,30,17.6,30.4z M34.1,13.9c-1.3-1.3-2.9-1.9-4.7-1.9c-1.8,0-3.4,0.7-4.7,1.9l-3.3,3.3c-0.4,0.4-0.4,1,0,1.4
			c0.4,0.4,1,0.4,1.4,0l3.3-3.3c0.9-0.9,2-1.3,3.2-1.3c1.2,0,2.4,0.5,3.2,1.3c1.8,1.8,1.8,4.7,0,6.5l-3.3,3.3c-0.4,0.4-0.4,1,0,1.4
			c0.2,0.2,0.5,0.3,0.7,0.3c0.3,0,0.5-0.1,0.7-0.3l3.3-3.3C36.7,20.7,36.7,16.5,34.1,13.9z M25.2,29.3l-3.3,3.3
			c-0.9,0.9-2,1.3-3.2,1.3c-1.2,0-2.4-0.5-3.2-1.3c-1.8-1.8-1.8-4.7,0-6.5l3.3-3.3c0.4-0.4,0.4-1,0-1.4c-0.4-0.4-1-0.4-1.4,0
			l-3.3,3.3c-2.6,2.6-2.6,6.8,0,9.4c1.3,1.3,2.9,1.9,4.7,1.9c1.8,0,3.4-0.7,4.7-1.9l3.3-3.3c0.4-0.4,0.4-1,0-1.4
			C26.3,28.9,25.6,28.9,25.2,29.3z"/>
	</g>
</g>
</svg>
