<?xml version="1.0" encoding="utf-8"?>
<!-- Generator: Adobe Illustrator 21.1.0, SVG Export Plug-In . SVG Version: 6.00 Build 0)  -->
<svg version="1.1" id="圖層_1" xmlns="http://www.w3.org/2000/svg" xmlns:xlink="http://www.w3.org/1999/xlink" x="0px" y="0px"
	 viewBox="0 0 48 48" style="enable-background:new 0 0 48 48;" xml:space="preserve">
<style type="text/css">
	.st0{fill-rule:evenodd;clip-rule:evenodd;fill:#CB2027;}
	.st1{fill:#FFFFFF;}
</style>
<circle class="st0" cx="24" cy="24" r="24"/>
<path class="st1" d="M25.8,30.4c-1.7-0.1-2.4-1-3.8-1.8c-0.7,3.9-1.6,7.7-4.3,9.7c-0.8-6,1.2-10.4,2.2-15.2
	c-1.6-2.8,0.2-8.3,3.6-6.9c4.2,1.7-3.6,10.3,1.6,11.3c5.5,1.1,7.7-9.7,4.3-13.2c-4.9-5.1-14.3-0.1-13.2,7.1c0.3,1.8,2.1,2.3,0.7,4.8
	c-3.2-0.7-4.1-3.2-4-6.6c0.2-5.5,4.9-9.3,9.6-9.9c5.9-0.7,11.5,2.2,12.3,7.9C35.7,24,32.2,30.9,25.8,30.4L25.8,30.4z"/>
</svg>
