<?xml version="1.0" encoding="utf-8"?>
<!-- Generator: Adobe Illustrator 21.1.0, SVG Export Plug-In . SVG Version: 6.00 Build 0)  -->
<svg version="1.1" id="圖層_1" xmlns="http://www.w3.org/2000/svg" xmlns:xlink="http://www.w3.org/1999/xlink" x="0px" y="0px"
	 viewBox="0 0 48 48" style="enable-background:new 0 0 48 48;" xml:space="preserve">
<style type="text/css">
	.st0{fill-rule:evenodd;clip-rule:evenodd;fill:#41ABE1;}
	.st1{fill:#FFFFFF;}
</style>
<circle class="st0" cx="24" cy="24" r="24"/>
<path class="st1" d="M38.2,16.8c-1,0.4-2,0.7-3.1,0.9c1.1-0.7,2-1.7,2.4-3c-1,0.6-2.2,1.1-3.4,1.3c-1-1.1-2.4-1.7-4-1.7
	c-3,0-5.4,2.4-5.4,5.4c0,0.4,0,0.8,0.1,1.2c-4.5-0.2-8.5-2.4-11.2-5.7C13.2,16,12.9,17,12.9,18c0,1.9,1,3.5,2.4,4.5
	c-0.9,0-1.7-0.3-2.5-0.7c0,0,0,0,0,0.1c0,2.6,1.9,4.8,4.3,5.3c-0.5,0.1-0.9,0.2-1.4,0.2c-0.3,0-0.7,0-1-0.1c0.7,2.2,2.7,3.7,5.1,3.8
	c-1.9,1.5-4.2,2.3-6.7,2.3c-0.4,0-0.9,0-1.3-0.1c2.4,1.5,5.2,2.4,8.3,2.4c10,0,15.4-8.3,15.4-15.5c0-0.2,0-0.5,0-0.7
	C36.5,18.8,37.5,17.9,38.2,16.8L38.2,16.8z"/>
</svg>
