<?xml version="1.0" encoding="utf-8"?>
<!-- Generator: Adobe Illustrator 21.1.0, SVG Export Plug-In . SVG Version: 6.00 Build 0)  -->
<svg version="1.1" id="圖層_1" xmlns="http://www.w3.org/2000/svg" xmlns:xlink="http://www.w3.org/1999/xlink" x="0px" y="0px"
	 viewBox="0 0 16 16" style="enable-background:new 0 0 16 16;" xml:space="preserve">
<style type="text/css">
	.st0{fill:#8E8E8E;}
</style>
<g>
	<g>
		<path class="st0" d="M8,0.5C3.8,0.5,0.3,3.9,0.3,8c0,4.1,3.4,7.5,7.7,7.5c4.2,0,7.7-3.4,7.7-7.5C15.7,3.9,12.2,0.5,8,0.5z M8,14.2
			c-3.5,0-6.4-2.8-6.4-6.2c0-3.4,2.9-6.2,6.4-6.2c3.5,0,6.4,2.8,6.4,6.2C14.4,11.4,11.5,14.2,8,14.2z M12,9.4L8.6,7.6V3.3
			c0-0.3-0.3-0.6-0.6-0.6c-0.4,0-0.6,0.3-0.6,0.6V8c0,0.2,0.1,0.4,0.3,0.5l3.7,1.9c0.1,0.1,0.2,0.1,0.3,0.1c0.2,0,0.4-0.1,0.6-0.3
			C12.4,9.9,12.3,9.6,12,9.4z"/>
	</g>
</g>
</svg>
