<?xml version="1.0" encoding="utf-8"?>
<!-- Generator: Adobe Illustrator 21.1.0, SVG Export Plug-In . SVG Version: 6.00 Build 0)  -->
<svg version="1.1" id="圖層_1" xmlns="http://www.w3.org/2000/svg" xmlns:xlink="http://www.w3.org/1999/xlink" x="0px" y="0px"
	 viewBox="0 0 16 16" style="enable-background:new 0 0 16 16;" xml:space="preserve">
<style type="text/css">
	.st0{fill:#8E8E8E;}
</style>
<path class="st0" d="M8,14.6c-0.3,0-0.5-0.1-0.7-0.3c-0.4-0.4-0.8-0.7-1.2-1c-3.3-2.7-5.7-4.7-5.7-7.4c0-2.5,1.9-4.4,4.3-4.4
	C5.9,1.4,7.1,2,8,3.1c0.9-1.1,2.1-1.6,3.4-1.6c2.5,0,4.3,1.9,4.3,4.4c0,2.7-2.4,4.7-5.7,7.4c-0.4,0.3-0.8,0.7-1.2,1
	C8.5,14.5,8.3,14.6,8,14.6z M8.1,13.4L8.1,13.4L8.1,13.4z M4.6,2.7c-1.7,0-3,1.4-3,3.2c0,2.1,2.2,4,5.3,6.5c0.4,0.3,0.7,0.6,1.1,0.9
	c0.4-0.3,0.8-0.6,1.1-0.9c3.1-2.5,5.3-4.3,5.3-6.5c0-1.8-1.3-3.2-3-3.2c-1.4,0-2.3,1-2.8,1.8c-0.2,0.4-0.9,0.4-1.1,0
	C7,3.6,6.1,2.7,4.6,2.7z"/>
</svg>
