<?xml version="1.0" encoding="utf-8"?>
<!-- Generator: Adobe Illustrator 21.1.0, SVG Export Plug-In . SVG Version: 6.00 Build 0)  -->
<svg version="1.1" id="圖層_1" xmlns="http://www.w3.org/2000/svg" xmlns:xlink="http://www.w3.org/1999/xlink" x="0px" y="0px"
	 viewBox="0 0 114 114" style="enable-background:new 0 0 114 114;" xml:space="preserve">
<style type="text/css">
	.st0{fill:#8E8E8E;}
</style>
<g>
	<path class="st0" d="M81.5,33.4H59.3v-4.8h14.5c0.8,0,1.4-0.6,1.4-1.4s-0.6-1.4-1.4-1.4H59.3v-4.8h15.3c0.8,0,1.4-0.6,1.4-1.4V6.9
		c0-0.8-0.6-1.4-1.4-1.4H41.1c-0.8,0-1.4,0.6-1.4,1.4v12.5c0,0.8,0.6,1.4,1.4,1.4h15.3v4.8H41.5c-0.8,0-1.4,0.6-1.4,1.4
		s0.6,1.4,1.4,1.4h14.8v4.8H34.2c-0.8,0-1.4,0.6-1.4,1.4s0.6,1.4,1.4,1.4h22.2v14.4h-13c-0.8,0-1.4,0.6-1.4,1.4s0.6,1.4,1.4,1.4h13
		v5.5H38.1c-0.8,0-1.4,0.6-1.4,1.4c0,0.8,0.6,1.4,1.4,1.4h39.6c0.8,0,1.4-0.6,1.4-1.4c0-0.8-0.6-1.4-1.4-1.4H59.3v-5.5h13.1
		c0.8,0,1.4-0.6,1.4-1.4s-0.6-1.4-1.4-1.4H59.3V36.2h22.2c0.8,0,1.4-0.6,1.4-1.4S82.3,33.4,81.5,33.4z M73.1,18H59.3V8.4h13.8V18z
		 M42.5,18V8.4h13.8V18H42.5z"/>
	<path class="st0" d="M47.3,46.6c0.8,0,1.4-0.6,1.4-1.4l0.2-3.4c0-0.8-0.6-1.5-1.4-1.5c-0.8,0-1.5,0.6-1.5,1.4l-0.2,3.4
		C45.8,45.9,46.4,46.6,47.3,46.6C47.3,46.6,47.3,46.6,47.3,46.6z"/>
	<path class="st0" d="M67.9,40.4c-0.8,0-1.4,0.7-1.4,1.5l0.1,3.4c0,0.8,0.7,1.4,1.4,1.4c0,0,0,0,0.1,0c0.8,0,1.4-0.7,1.4-1.5
		l-0.1-3.4C69.4,41,68.7,40.3,67.9,40.4z"/>
	<path class="st0" d="M36.4,45.9c0.1,0,0.2,0,0.2,0c0.7,0,1.3-0.5,1.4-1.2l0.7-4.3c0.1-0.8-0.4-1.5-1.2-1.7
		c-0.8-0.1-1.5,0.4-1.7,1.2l-0.7,4.3C35.1,45,35.7,45.7,36.4,45.9z"/>
	<path class="st0" d="M80.2,44.2l-0.7-4.3c-0.1-0.8-0.9-1.3-1.7-1.2c-0.8,0.1-1.3,0.9-1.2,1.7l0.7,4.3c0.1,0.7,0.7,1.2,1.4,1.2
		c0.1,0,0.2,0,0.2,0C79.8,45.8,80.3,45,80.2,44.2z"/>
	<path class="st0" d="M47.5,75.2c-0.8,0-1.5,0.6-1.5,1.4L46,78c0,0.8,0.6,1.5,1.4,1.5c0,0,0,0,0.1,0c0.8,0,1.4-0.6,1.4-1.4l0.1-1.4
		C48.9,75.9,48.3,75.3,47.5,75.2z"/>
	<path class="st0" d="M47.4,83.2c-0.8,0-1.4,0.6-1.5,1.4l-0.1,6.1c0,0.8,0.6,1.4,1.4,1.5c0,0,0,0,0,0c0.8,0,1.4-0.6,1.4-1.4l0.1-6.1
		C48.8,83.8,48.2,83.2,47.4,83.2z"/>
	<path class="st0" d="M68.3,79.6C68.3,79.6,68.3,79.6,68.3,79.6c0.8,0,1.5-0.7,1.4-1.5l0-1.4c0-0.8-0.7-1.4-1.5-1.4
		c-0.8,0-1.4,0.7-1.4,1.5l0,1.4C66.9,79,67.5,79.6,68.3,79.6z"/>
	<path class="st0" d="M68.4,83.2C68.4,83.2,68.3,83.2,68.4,83.2c-0.8,0-1.4,0.7-1.4,1.5l0.1,6.2c0,0.8,0.7,1.4,1.4,1.4c0,0,0,0,0,0
		c0.8,0,1.4-0.7,1.4-1.5l-0.1-6.2C69.8,83.8,69.1,83.2,68.4,83.2z"/>
	<path class="st0" d="M79.9,68.5c0-0.8-0.6-1.5-1.4-1.5c-0.1,0-0.1,0-0.2,0c-0.1,0-0.1,0-0.2,0H36.9c0,0,0,0,0,0c0,0,0,0,0,0
		c-0.1,0-0.2,0-0.3,0.1c-0.1,0-0.2,0-0.3,0.1c-0.1,0-0.2,0.1-0.2,0.2c-0.1,0.1-0.2,0.1-0.2,0.2c-0.1,0.1-0.1,0.1-0.1,0.2
		c-0.1,0.1-0.1,0.2-0.2,0.2c0,0.1,0,0.2-0.1,0.3c0,0.1-0.1,0.2-0.1,0.3c0,0,0,0,0,0c0,0,0,0,0,0c0.3,9.2,0,18.6-0.7,27.8
		c-0.1,0.8,0.5,1.5,1.3,1.5c0,0,0.1,0,0.1,0c0.7,0,1.4-0.6,1.4-1.3c0.7-8.8,0.9-17.8,0.7-26.6h18v21.5c0,0.8,0.6,1.4,1.4,1.4
		s1.4-0.6,1.4-1.4V69.9H77c-0.1,8.9,0.2,17.8,0.9,26.6c0.1,0.8,0.7,1.3,1.4,1.3c0,0,0.1,0,0.1,0c0.8-0.1,1.4-0.8,1.3-1.6
		C80,87,79.7,77.7,79.9,68.5z"/>
	<path class="st0" d="M66,14.5c0,0,0.1,0,0.1,0l0.7-0.1c0.8-0.1,1.4-0.8,1.3-1.6c-0.1-0.8-0.8-1.4-1.6-1.3l-0.7,0.1
		c-0.8,0.1-1.4,0.8-1.3,1.6C64.6,14,65.2,14.5,66,14.5z"/>
	<path class="st0" d="M49.8,11.7l-0.7-0.1c-0.8-0.1-1.5,0.5-1.6,1.3c-0.1,0.8,0.5,1.5,1.3,1.6l0.7,0.1c0,0,0.1,0,0.1,0
		c0.7,0,1.4-0.6,1.4-1.3C51.2,12.4,50.6,11.7,49.8,11.7z"/>
</g>
<g>
	<path class="st0" d="M36.1,101.4c-0.8,0-1.4,0.6-1.4,1.4v3.9c0,0.8,0.6,1.4,1.4,1.4c0.8,0,1.4-0.6,1.4-1.4v-3.9
		C37.5,102.1,36.9,101.4,36.1,101.4z"/>
	<path class="st0" d="M46.9,101.4c-0.8,0-1.4,0.6-1.4,1.4v3.9c0,0.8,0.6,1.4,1.4,1.4c0.8,0,1.4-0.6,1.4-1.4v-3.9
		C48.4,102.1,47.7,101.4,46.9,101.4z"/>
	<path class="st0" d="M57.8,101.4c-0.8,0-1.4,0.6-1.4,1.4v3.9c0,0.8,0.6,1.4,1.4,1.4s1.4-0.6,1.4-1.4v-3.9
		C59.3,102.1,58.6,101.4,57.8,101.4z"/>
	<path class="st0" d="M68.3,101.4c-0.8,0-1.4,0.6-1.4,1.4v3.9c0,0.8,0.6,1.4,1.4,1.4s1.4-0.6,1.4-1.4v-3.9
		C69.7,102.1,69,101.4,68.3,101.4z"/>
	<path class="st0" d="M79.3,101.4c-0.8,0-1.4,0.6-1.4,1.4v3.9c0,0.8,0.6,1.4,1.4,1.4s1.4-0.6,1.4-1.4v-3.9
		C80.7,102.1,80.1,101.4,79.3,101.4z"/>
</g>
</svg>
