<?xml version="1.0" encoding="utf-8"?>
<!-- Generator: Adobe Illustrator 21.1.0, SVG Export Plug-In . SVG Version: 6.00 Build 0)  -->
<svg version="1.1" id="圖層_1" xmlns="http://www.w3.org/2000/svg" xmlns:xlink="http://www.w3.org/1999/xlink" x="0px" y="0px"
	 viewBox="0 0 114 114" style="enable-background:new 0 0 114 114;" xml:space="preserve">
<style type="text/css">
	.st0{fill:#8E8E8E;}
</style>
<g>
	<g>
		<path class="st0" d="M58.8,18.9l5.2,5.3c1.5,1.5,2.2,3.6,1.9,5.6l0,0c0,0.3,0.1,0.6,0.3,0.9c0.4,0.4,1.1,0.4,1.5,0
			c0.1-0.1,0.2-0.3,0.3-0.5l2.2-8.4l0,0c0.5-1.9,0-3.9-1.4-5.4l0,0l-6.8-6.8l0,0c0,0,0,0,0,0c-1.4-1.4-3.7-1.4-5.2,0
			c-0.1,0.1-0.5,0.5-0.6,0.6c-1.8,1.8-1.8,4.6,0,6.4L58.8,18.9z M66.8,40.6L66.8,40.6c-0.3,0.1-0.5,0.4-0.6,0.7
			C66,42,66.4,42.6,67,42.7c0.2,0.1,0.4,0,0.6,0l8.3-2.2v0c1.8-0.5,3.4-1.9,4-3.9l0,0l2.5-9.3l0,0c0,0,0,0,0,0c0.5-2-0.6-4-2.6-4.5
			c-0.1,0-0.7-0.2-0.8-0.2c-2.4-0.6-4.9,0.8-5.5,3.2L72.6,29l-1.9,7.2C70.1,38.2,68.6,39.8,66.8,40.6z M67.9,56.1L67.9,56.1l9.3-2.5
			l0,0c0,0,0,0,0,0c2-0.5,3.1-2.5,2.6-4.5c0-0.1-0.2-0.7-0.2-0.8c-0.6-2.4-3.1-3.8-5.5-3.2L70.8,46l-7.2,1.9
			c-2.1,0.6-4.2,0.1-5.8-1.1l0,0c-0.3-0.2-0.6-0.2-0.9-0.2c-0.6,0.2-0.9,0.8-0.8,1.3c0.1,0.2,0.2,0.4,0.3,0.5l6.1,6.1l0,0
			C63.9,56,65.9,56.6,67.9,56.1z M51.8,62.3L51.8,62.3C51.8,62.3,51.8,62.3,51.8,62.3c1.4,1.4,3.8,1.4,5.2,0
			c0.1-0.1,0.5-0.5,0.6-0.6c1.8-1.8,1.8-4.6,0-6.4l-2.3-2.3L50,47.7c-1.5-1.5-2.2-3.6-1.9-5.6l0,0c0-0.3-0.1-0.6-0.3-0.9
			c-0.4-0.4-1.1-0.4-1.5,0c-0.1,0.1-0.2,0.3-0.3,0.5l-2.2,8.4l0,0c-0.5,1.9,0,3.9,1.4,5.4l0,0L51.8,62.3z M34.3,49.1
			c0.1,0,0.7,0.2,0.8,0.2c2.4,0.6,4.9-0.8,5.5-3.2l0.9-3.2l1.9-7.2c0.6-2.1,2-3.7,3.8-4.5l0,0c0.3-0.1,0.5-0.4,0.6-0.7
			c0.2-0.6-0.2-1.2-0.8-1.3c-0.2-0.1-0.4,0-0.6,0l-8.3,2.2l0,0c-1.8,0.5-3.4,1.9-4,3.9l0,0l-2.5,9.3l0,0c0,0,0,0,0,0
			C31.2,46.5,32.3,48.6,34.3,49.1z M34.5,23.6c0.6,2.4,3.1,3.8,5.5,3.2l3.2-0.9l7.2-1.9c2.1-0.6,4.2-0.1,5.8,1.1v0
			c0.3,0.2,0.6,0.2,0.9,0.2c0.6-0.2,0.9-0.8,0.8-1.3c-0.1-0.2-0.2-0.4-0.3-0.5l-6.1-6.1l0,0c-1.4-1.4-3.4-2-5.3-1.5l0,0l-9.3,2.5
			l0,0c0,0,0,0,0,0c-2,0.5-3.1,2.5-2.6,4.5C34.3,22.9,34.5,23.4,34.5,23.6z M43.7,86.6c0-5.8-4.8-10.5-10.7-10.5
			c-5.9,0-10.7,4.7-10.7,10.5c0,5.8,4.8,10.5,10.7,10.5C38.9,97.2,43.7,92.4,43.7,86.6z M32.9,93.6c-3.9,0-7.2-3.1-7.2-7
			c0-3.9,3.2-7,7.2-7c3.9,0,7.2,3.1,7.2,7C40.1,90.5,36.9,93.6,32.9,93.6z M98.8,76.1c-5.9,0-10.7,4.7-10.7,10.5
			c0,5.8,4.8,10.5,10.7,10.5c5.9,0,10.7-4.7,10.7-10.5C109.5,80.8,104.7,76.1,98.8,76.1z M98.8,93.6c-3.9,0-7.2-3.1-7.2-7
			c0-3.9,3.2-7,7.2-7c3.9,0,7.2,3.1,7.2,7C105.9,90.5,102.7,93.6,98.8,93.6z M21.5,76.1h-3.9c-0.3,0-0.5,0.2-0.7,0.4l0,0l-3,5.9l0,0
			c-0.1,0.2-0.2,0.5-0.2,0.7c0,0.2,0.1,0.5,0.2,0.7c0,0,0,0,0,0l1.5,3c0.1,0.1,0.2,0.2,0.3,0.2c0.1,0,0.3-0.1,0.3-0.2l4.5-8.8h0
			c0.1-0.3,0.4-0.5,0.8-0.5h0.2c0.4,0,0.7-0.3,0.7-0.7C22.2,76.4,21.9,76.1,21.5,76.1z M8.8,76.4c-0.1-0.2-0.4-0.4-0.6-0.4H4.8
			c-0.2,0-0.3,0.2-0.3,0.3c0,0.1,0,0.1,0,0.2l6.2,12.1v8.1c0,0.2,0.2,0.4,0.4,0.4h3.6c0.2,0,0.4-0.2,0.4-0.4v-7.7
			c0-0.3-0.1-0.5-0.2-0.7L8.8,76.4z M56.3,85.5l-2.7-1.1c-1.8-0.7-3.2-1.2-3.2-2.6c0-1.3,1.2-2.1,3-2.1c1.4,0,2.6,0.4,3.7,1.2l0,0
			c0.1,0.1,0.3,0.1,0.4,0.1c0.3,0,0.5-0.2,0.6-0.4l1-2c0,0,0-0.1,0-0.1c0-0.1,0-0.2-0.1-0.3c-1.6-1.2-3.6-1.9-5.7-1.9
			c-4.2,0-7.1,2.5-7.1,5.8c0,3,2.1,4.6,4.2,5.4l2.8,1.1c1.8,0.8,3.1,1.2,3.1,2.7c0,1.4-1.1,2.3-3.3,2.3c-1.5,0-3.1-0.6-4.5-1.6v0
			c-0.1-0.1-0.3-0.2-0.5-0.2c-0.3,0-0.5,0.2-0.6,0.4l0,0l-1.2,2.3c0,0,0,0.1,0,0.1c0,0.1,0,0.2,0.1,0.3c1.9,1.4,4.3,2.2,6.6,2.2
			c4.8,0,7.6-2.8,7.6-6.1C60.5,88.1,58.8,86.6,56.3,85.5z M84.3,84.8h-3.2h-4.5c-0.3,0-0.5,0.1-0.6,0.4l-1.1,2.1l-0.3,0.6
			c0,0,0,0.1,0,0.1c0,0.2,0.2,0.3,0.4,0.3h6.2c-0.8,3-3.6,5.2-6.9,5.2c-3.9,0-7.1-3.1-7.1-7c0-3.8,3.2-7,7.1-7c1.5,0,2.9,0.5,4,1.2
			l0.4-0.7c0,0,0,0,0,0c0,0,0,0,0,0l1.3-2.5c-0.1,0-0.2-0.1-0.2-0.1c0,0,0,0,0,0c0,0-0.1,0-0.1,0c-1.6-0.9-3.4-1.4-5.3-1.4
			c-5.9,0-10.8,4.7-10.8,10.5c0,5.8,4.8,10.5,10.8,10.5c5.9,0,10.8-4.7,10.8-10.5c0-0.4,0-0.8-0.1-1.2
			C84.9,85.1,84.6,84.9,84.3,84.8z M38.1,101.2c-0.1,0-0.1,0-0.2,0c0,0-0.1,0.1-0.1,0.1c0,0-0.1,0.1-0.1,0.1c0,0.1-0.1,0.1-0.1,0.2
			l-0.8,1.2l-0.8-1.2c-0.1-0.2-0.2-0.3-0.3-0.4c-0.1-0.1-0.1-0.1-0.3-0.1c-0.1,0-0.2,0-0.3,0.1c-0.1,0.1-0.1,0.2-0.1,0.2
			c0,0.1,0,0.1,0.1,0.2c0,0.1,0.1,0.2,0.2,0.3l1,1.6v1.3c0,0.2,0,0.3,0.1,0.4c0.1,0.1,0.2,0.1,0.3,0.1c0.1,0,0.2,0,0.3-0.1
			c0.1-0.1,0.1-0.2,0.1-0.4v-1.3l1-1.6c0.1-0.1,0.1-0.2,0.2-0.3c0-0.1,0.1-0.1,0.1-0.2c0-0.1,0-0.2-0.1-0.2
			C38.3,101.2,38.2,101.2,38.1,101.2z M43,101.5c-0.3-0.2-0.7-0.3-1.1-0.3c-0.3,0-0.6,0-0.8,0.1c-0.2,0.1-0.5,0.2-0.6,0.4
			c-0.2,0.2-0.3,0.4-0.4,0.7c-0.1,0.3-0.1,0.6-0.1,0.9c0,0.3,0,0.6,0.1,0.9c0.1,0.3,0.2,0.5,0.4,0.7c0.2,0.2,0.4,0.3,0.6,0.4
			c0.3,0.1,0.5,0.2,0.9,0.2c0.3,0,0.6-0.1,0.9-0.2c0.2-0.1,0.5-0.2,0.6-0.4c0.2-0.2,0.3-0.4,0.4-0.7c0.1-0.3,0.1-0.5,0.1-0.9
			c0-0.4-0.1-0.8-0.2-1.1C43.6,101.9,43.3,101.6,43,101.5z M43,104.1c-0.1,0.2-0.2,0.4-0.4,0.5c-0.2,0.1-0.4,0.2-0.6,0.2
			c-0.2,0-0.3,0-0.5-0.1c-0.1-0.1-0.3-0.2-0.4-0.3c-0.1-0.1-0.2-0.3-0.2-0.5c-0.1-0.2-0.1-0.4-0.1-0.6c0-0.2,0-0.4,0.1-0.6
			c0.1-0.2,0.1-0.3,0.2-0.5c0.1-0.1,0.2-0.2,0.4-0.3c0.1-0.1,0.3-0.1,0.5-0.1c0.2,0,0.4,0.1,0.6,0.2c0.2,0.1,0.3,0.3,0.4,0.5
			c0.1,0.2,0.1,0.5,0.1,0.8C43.1,103.7,43.1,103.9,43,104.1z M48.5,103.3c-0.1-0.1-0.3-0.2-0.5-0.2c-0.2-0.1-0.4-0.1-0.6-0.2
			c-0.2,0-0.3-0.1-0.4-0.1c-0.1,0-0.2-0.1-0.2-0.1c-0.1,0-0.1-0.1-0.2-0.2c0-0.1-0.1-0.1-0.1-0.2c0-0.1,0.1-0.2,0.2-0.3
			c0.1-0.1,0.3-0.1,0.5-0.1c0.2,0,0.4,0,0.5,0.1s0.2,0.2,0.3,0.4c0.1,0.1,0.1,0.2,0.2,0.2c0,0,0.1,0.1,0.2,0.1c0.1,0,0.2,0,0.3-0.1
			c0.1-0.1,0.1-0.2,0.1-0.3c0-0.1,0-0.2-0.1-0.3c-0.1-0.1-0.1-0.2-0.3-0.3c-0.1-0.1-0.3-0.2-0.5-0.2c-0.2-0.1-0.4-0.1-0.7-0.1
			c-0.3,0-0.6,0-0.8,0.1c-0.2,0.1-0.4,0.2-0.5,0.4c-0.1,0.2-0.2,0.4-0.2,0.6c0,0.2,0.1,0.4,0.2,0.6c0.1,0.2,0.3,0.3,0.5,0.4
			c0.2,0.1,0.4,0.2,0.7,0.2c0.2,0.1,0.4,0.1,0.5,0.1c0.1,0,0.2,0.1,0.3,0.2c0.1,0.1,0.1,0.2,0.1,0.3c0,0.2-0.1,0.3-0.2,0.4
			c-0.2,0.1-0.4,0.2-0.6,0.2c-0.2,0-0.3,0-0.4-0.1c-0.1-0.1-0.2-0.1-0.3-0.2c-0.1-0.1-0.1-0.2-0.2-0.3c0-0.1-0.1-0.2-0.2-0.2
			c-0.1-0.1-0.1-0.1-0.2-0.1c-0.1,0-0.2,0-0.3,0.1c-0.1,0.1-0.1,0.2-0.1,0.3c0,0.2,0.1,0.4,0.2,0.5c0.1,0.2,0.3,0.3,0.5,0.4
			c0.3,0.2,0.6,0.2,1,0.2c0.3,0,0.6-0.1,0.9-0.2c0.2-0.1,0.4-0.3,0.6-0.5c0.1-0.2,0.2-0.4,0.2-0.7c0-0.2,0-0.4-0.1-0.5
			C48.7,103.5,48.6,103.4,48.5,103.3z M54.2,103.3c-0.1,0-0.2,0-0.3,0H53c-0.1,0-0.2,0-0.3,0.1c-0.1,0.1-0.1,0.1-0.1,0.2
			c0,0.1,0,0.2,0.1,0.2c0.1,0,0.2,0.1,0.4,0.1h0.6v0.7c-0.2,0.1-0.3,0.2-0.5,0.2c-0.2,0.1-0.3,0.1-0.5,0.1c-0.4,0-0.7-0.1-0.9-0.4
			c-0.2-0.3-0.3-0.6-0.3-1.1c0-0.2,0-0.4,0.1-0.6c0.1-0.2,0.1-0.3,0.2-0.5c0.1-0.1,0.2-0.2,0.4-0.3s0.3-0.1,0.5-0.1
			c0.2,0,0.3,0,0.5,0.1c0.1,0.1,0.2,0.1,0.3,0.2c0.1,0.1,0.2,0.2,0.3,0.4c0,0.1,0.1,0.1,0.1,0.1c0.1,0,0.1,0,0.2,0
			c0.1,0,0.2,0,0.3-0.1c0.1-0.1,0.1-0.2,0.1-0.3c0-0.1,0-0.2-0.1-0.3c-0.1-0.1-0.2-0.2-0.3-0.4c-0.1-0.1-0.3-0.2-0.5-0.3
			c-0.2-0.1-0.5-0.1-0.7-0.1c-0.3,0-0.6,0-0.9,0.1c-0.3,0.1-0.5,0.2-0.7,0.4c-0.2,0.2-0.3,0.4-0.4,0.7c-0.1,0.3-0.1,0.6-0.1,0.9
			c0,0.3,0,0.6,0.1,0.9c0.1,0.3,0.2,0.5,0.4,0.7c0.2,0.2,0.4,0.3,0.7,0.4c0.3,0.1,0.5,0.1,0.9,0.1c0.3,0,0.5,0,0.7-0.1
			c0.2-0.1,0.5-0.2,0.7-0.3c0.1,0,0.2-0.1,0.2-0.1c0.1-0.1,0.1-0.1,0.1-0.2c0-0.1,0-0.1,0-0.3v-0.8c0-0.1,0-0.2-0.1-0.3
			C54.4,103.3,54.3,103.3,54.2,103.3z M59.3,101.5c-0.3-0.2-0.7-0.3-1.1-0.3c-0.3,0-0.6,0-0.8,0.1c-0.2,0.1-0.5,0.2-0.6,0.4
			c-0.2,0.2-0.3,0.4-0.4,0.7c-0.1,0.3-0.1,0.6-0.1,0.9c0,0.3,0,0.6,0.1,0.9c0.1,0.3,0.2,0.5,0.4,0.7c0.2,0.2,0.4,0.3,0.6,0.4
			c0.3,0.1,0.5,0.2,0.9,0.2c0.3,0,0.6-0.1,0.9-0.2c0.2-0.1,0.5-0.2,0.6-0.4c0.2-0.2,0.3-0.4,0.4-0.7c0.1-0.3,0.1-0.5,0.1-0.9
			c0-0.4-0.1-0.8-0.2-1.1C59.9,101.9,59.6,101.6,59.3,101.5z M59.3,104.1c-0.1,0.2-0.2,0.4-0.4,0.5c-0.2,0.1-0.4,0.2-0.6,0.2
			c-0.2,0-0.3,0-0.5-0.1c-0.1-0.1-0.3-0.2-0.4-0.3c-0.1-0.1-0.2-0.3-0.2-0.5c-0.1-0.2-0.1-0.4-0.1-0.6c0-0.2,0-0.4,0.1-0.6
			c0.1-0.2,0.1-0.3,0.2-0.5c0.1-0.1,0.2-0.2,0.4-0.3c0.1-0.1,0.3-0.1,0.5-0.1c0.2,0,0.4,0.1,0.6,0.2c0.2,0.1,0.3,0.3,0.4,0.5
			c0.1,0.2,0.1,0.5,0.1,0.8C59.4,103.7,59.4,103.9,59.3,104.1z M65.1,101.2c-0.1,0-0.2,0-0.3,0.1c-0.1,0.1-0.1,0.2-0.1,0.4v3.2
			c0,0.2,0,0.3,0.1,0.4c0.1,0.1,0.2,0.1,0.3,0.1c0.1,0,0.2,0,0.3-0.1c0.1-0.1,0.1-0.2,0.1-0.4v-3.2c0-0.2,0-0.3-0.1-0.4
			C65.4,101.3,65.2,101.2,65.1,101.2z M70.1,102.9c-0.1-0.2-0.2-0.3-0.4-0.4c-0.2-0.1-0.3-0.1-0.5-0.1c-0.2,0-0.4,0-0.5,0.1
			c-0.2,0.1-0.3,0.2-0.4,0.4v-0.1c0-0.1,0-0.2,0-0.2c0-0.1-0.1-0.1-0.1-0.1c-0.1,0-0.1,0-0.2,0c-0.1,0-0.2,0-0.3,0.1
			c-0.1,0.1-0.1,0.2-0.1,0.3v2.2c0,0.1,0,0.3,0.1,0.3c0.1,0.1,0.2,0.1,0.3,0.1c0.1,0,0.2,0,0.3-0.1c0.1-0.1,0.1-0.2,0.1-0.3v-1
			c0-0.3,0-0.5,0.1-0.6c0.1-0.1,0.1-0.3,0.2-0.3c0.1-0.1,0.2-0.1,0.4-0.1c0.2,0,0.3,0.1,0.4,0.2c0.1,0.1,0.1,0.3,0.1,0.6v1.3
			c0,0.1,0,0.3,0.1,0.3c0.1,0.1,0.2,0.1,0.3,0.1c0.1,0,0.2,0,0.3-0.1c0.1-0.1,0.1-0.2,0.1-0.3v-1.4c0-0.2,0-0.3,0-0.4
			C70.2,103.1,70.2,102.9,70.1,102.9z M74.6,104.2c-0.1,0-0.1,0-0.2,0.1c-0.1,0-0.1,0.1-0.2,0.2c-0.1,0.1-0.2,0.3-0.3,0.3
			c-0.1,0.1-0.2,0.1-0.4,0.1c-0.1,0-0.2,0-0.3-0.1c-0.1,0-0.2-0.1-0.2-0.2c-0.1-0.1-0.1-0.2-0.2-0.3c0-0.1-0.1-0.3-0.1-0.4
			c0-0.3,0.1-0.5,0.2-0.7c0.1-0.2,0.3-0.3,0.5-0.3c0.2,0,0.3,0,0.4,0.1c0.1,0.1,0.2,0.2,0.3,0.3c0.1,0.1,0.1,0.1,0.1,0.2
			c0,0,0.1,0,0.2,0c0.1,0,0.2,0,0.2-0.1c0.1-0.1,0.1-0.1,0.1-0.2c0-0.1,0-0.2-0.1-0.3c-0.1-0.1-0.1-0.2-0.3-0.3
			c-0.1-0.1-0.3-0.2-0.4-0.2c-0.2-0.1-0.3-0.1-0.5-0.1c-0.3,0-0.6,0.1-0.8,0.2s-0.4,0.3-0.5,0.6c-0.1,0.2-0.2,0.5-0.2,0.8
			c0,0.5,0.1,0.8,0.4,1.1c0.3,0.3,0.6,0.4,1.1,0.4c0.2,0,0.4,0,0.6-0.1c0.2-0.1,0.3-0.1,0.4-0.2c0.1-0.1,0.2-0.2,0.3-0.3
			c0.1-0.1,0.1-0.2,0.1-0.3c0-0.1,0-0.2-0.1-0.2C74.7,104.2,74.7,104.2,74.6,104.2z M76.9,104.6c-0.1,0-0.2,0-0.3,0.1
			c-0.1,0.1-0.1,0.2-0.1,0.3c0,0.1,0,0.2,0.1,0.3c0.1,0.1,0.2,0.1,0.3,0.1c0.1,0,0.2,0,0.3-0.1c0.1-0.1,0.1-0.2,0.1-0.3
			c0-0.1,0-0.2-0.1-0.3C77.1,104.7,77,104.6,76.9,104.6z"/>
	</g>
</g>
</svg>
