<?xml version="1.0" encoding="utf-8"?>
<!-- Generator: Adobe Illustrator 21.1.0, SVG Export Plug-In . SVG Version: 6.00 Build 0)  -->
<svg version="1.1" id="圖層_2" xmlns="http://www.w3.org/2000/svg" xmlns:xlink="http://www.w3.org/1999/xlink" x="0px" y="0px"
	 viewBox="0 0 114 114" style="enable-background:new 0 0 114 114;" xml:space="preserve">
<style type="text/css">
	.st0{fill-rule:evenodd;clip-rule:evenodd;fill:#602463;}
	.st1{fill-rule:evenodd;clip-rule:evenodd;fill:url(#SVGID_1_);}
	.st2{fill-rule:evenodd;clip-rule:evenodd;fill:url(#SVGID_2_);}
	.st3{fill-rule:evenodd;clip-rule:evenodd;fill:url(#SVGID_3_);}
	.st4{fill-rule:evenodd;clip-rule:evenodd;fill:url(#SVGID_4_);}
	.st5{fill-rule:evenodd;clip-rule:evenodd;fill:url(#SVGID_5_);}
	.st6{fill-rule:evenodd;clip-rule:evenodd;fill:url(#SVGID_6_);}
	.st7{fill-rule:evenodd;clip-rule:evenodd;fill:url(#SVGID_7_);}
	.st8{fill-rule:evenodd;clip-rule:evenodd;fill:url(#SVGID_8_);}
	.st9{fill-rule:evenodd;clip-rule:evenodd;fill:url(#SVGID_9_);}
	.st10{fill-rule:evenodd;clip-rule:evenodd;fill:url(#SVGID_10_);}
	.st11{fill-rule:evenodd;clip-rule:evenodd;fill:url(#SVGID_11_);}
	.st12{fill-rule:evenodd;clip-rule:evenodd;fill:url(#SVGID_12_);}
	.st13{fill-rule:evenodd;clip-rule:evenodd;fill:url(#SVGID_13_);}
	.st14{fill-rule:evenodd;clip-rule:evenodd;fill:url(#SVGID_14_);}
	.st15{fill-rule:evenodd;clip-rule:evenodd;fill:url(#SVGID_15_);}
	.st16{fill-rule:evenodd;clip-rule:evenodd;fill:url(#SVGID_16_);}
	.st17{fill-rule:evenodd;clip-rule:evenodd;fill:url(#SVGID_17_);}
	.st18{fill-rule:evenodd;clip-rule:evenodd;fill:url(#SVGID_18_);}
	.st19{fill-rule:evenodd;clip-rule:evenodd;fill:url(#SVGID_19_);}
	.st20{fill-rule:evenodd;clip-rule:evenodd;fill:url(#SVGID_20_);}
	.st21{fill-rule:evenodd;clip-rule:evenodd;fill:url(#SVGID_21_);}
	.st22{fill-rule:evenodd;clip-rule:evenodd;fill:url(#SVGID_22_);}
	.st23{fill-rule:evenodd;clip-rule:evenodd;fill:url(#SVGID_23_);}
	.st24{fill-rule:evenodd;clip-rule:evenodd;fill:url(#SVGID_24_);}
	.st25{fill-rule:evenodd;clip-rule:evenodd;fill:url(#SVGID_25_);}
	.st26{fill-rule:evenodd;clip-rule:evenodd;fill:url(#SVGID_26_);}
	.st27{fill-rule:evenodd;clip-rule:evenodd;fill:url(#SVGID_27_);}
	.st28{fill-rule:evenodd;clip-rule:evenodd;fill:url(#SVGID_28_);}
	.st29{fill-rule:evenodd;clip-rule:evenodd;fill:url(#SVGID_29_);}
	.st30{fill-rule:evenodd;clip-rule:evenodd;fill:url(#SVGID_30_);}
	.st31{fill-rule:evenodd;clip-rule:evenodd;fill:url(#SVGID_31_);}
	.st32{fill-rule:evenodd;clip-rule:evenodd;fill:url(#SVGID_32_);}
	.st33{fill-rule:evenodd;clip-rule:evenodd;fill:url(#SVGID_33_);}
	.st34{fill-rule:evenodd;clip-rule:evenodd;fill:url(#SVGID_34_);}
	.st35{fill-rule:evenodd;clip-rule:evenodd;fill:url(#SVGID_35_);}
	.st36{fill-rule:evenodd;clip-rule:evenodd;fill:url(#SVGID_36_);}
	.st37{fill-rule:evenodd;clip-rule:evenodd;fill:#FFFFFF;}
</style>
<g>
	<circle class="st0" cx="57" cy="57" r="52.5"/>
	<g>
		<linearGradient id="SVGID_1_" gradientUnits="userSpaceOnUse" x1="46.9489" y1="6.8278" x2="46.9489" y2="105.8898">
			<stop  offset="0" style="stop-color:#FFFFFF;stop-opacity:0"/>
			<stop  offset="1" style="stop-color:#FFFFFF;stop-opacity:0.3"/>
		</linearGradient>
		<path class="st1" d="M46.6,14.7c-0.1-0.1-0.3-0.1-0.5,0l-3.6,3.6c-0.3,0.3-0.4,0.8-0.2,1.2c0.2,0.4,0.6,0.7,1,0.7h8
			c0.1,0,0.3-0.1,0.3-0.2c0.1-0.1,0-0.3-0.1-0.4L46.6,14.7z M43.4,19.5c-0.2,0-0.4-0.1-0.4-0.3c-0.1-0.2,0-0.4,0.1-0.5l3.3-3.4
			l4.2,4.2H43.4z"/>
		<linearGradient id="SVGID_2_" gradientUnits="userSpaceOnUse" x1="45.447" y1="6.8278" x2="45.447" y2="105.8898">
			<stop  offset="0" style="stop-color:#FFFFFF;stop-opacity:0"/>
			<stop  offset="1" style="stop-color:#FFFFFF;stop-opacity:0.3"/>
		</linearGradient>
		<path class="st2" d="M39.4,20.1c0,0,0.1,0,0.1,0c0.1,0,0.2,0,0.2-0.1L51.6,8.2c0.1-0.1,0.1-0.2,0.1-0.4c-0.1-0.1-0.2-0.2-0.3-0.2
			h-2.9c-0.8,0-1.5,0.3-2.1,0.9L42.9,12V7.9c0-0.2-0.1-0.3-0.3-0.3h-0.1c-1.8,0-3.2,1.4-3.2,3.2v9C39.2,19.9,39.3,20.1,39.4,20.1z
			 M39.8,10.8c0-1.4,1.1-2.5,2.4-2.6v4.5c0,0.1,0.1,0.3,0.2,0.3c0.1,0,0.3,0,0.4-0.1l4.1-4.1c0.4-0.4,1-0.7,1.6-0.7h2.1L39.8,19
			V10.8z"/>
		<linearGradient id="SVGID_3_" gradientUnits="userSpaceOnUse" x1="22.5659" y1="6.8278" x2="22.5659" y2="105.8898">
			<stop  offset="0" style="stop-color:#FFFFFF;stop-opacity:0"/>
			<stop  offset="1" style="stop-color:#FFFFFF;stop-opacity:0.3"/>
		</linearGradient>
		<path class="st3" d="M27.3,44.4c0.1-0.1,0-0.3-0.1-0.4l-5-5c-0.1-0.1-0.3-0.1-0.5,0l-3.6,3.6c-0.3,0.3-0.4,0.8-0.2,1.2
			c0.2,0.4,0.6,0.7,1,0.7h8C27.1,44.6,27.2,44.5,27.3,44.4z M19,43.9c-0.2,0-0.4-0.1-0.4-0.3c-0.1-0.2,0-0.4,0.1-0.5l3.3-3.4
			l4.2,4.2H19z"/>
		<linearGradient id="SVGID_4_" gradientUnits="userSpaceOnUse" x1="21.0648" y1="6.8278" x2="21.0648" y2="105.8898">
			<stop  offset="0" style="stop-color:#FFFFFF;stop-opacity:0"/>
			<stop  offset="1" style="stop-color:#FFFFFF;stop-opacity:0.3"/>
		</linearGradient>
		<path class="st4" d="M27.3,32.2C27.3,32.1,27.1,32,27,32l-2.9,0c-0.8,0-1.5,0.3-2.1,0.9l-3.5,3.5v-4.1c0-0.2-0.1-0.3-0.3-0.3H18
			c0,0,0,0,0,0c-0.9,0-1.7,0.3-2.3,0.9c-0.6,0.6-0.9,1.4-0.9,2.3v9c0,0.1,0.1,0.3,0.2,0.3c0,0,0.1,0,0.1,0c0.1,0,0.2,0,0.2-0.1
			l11.9-11.9C27.3,32.5,27.4,32.3,27.3,32.2z M15.5,43.4v-8.2c0-0.7,0.3-1.3,0.8-1.8c0.4-0.4,1-0.7,1.6-0.7v4.5
			c0,0.1,0.1,0.3,0.2,0.3c0.1,0,0.3,0,0.4-0.1l4.1-4.1c0.4-0.4,1-0.7,1.6-0.7l2.1,0L15.5,43.4z"/>
		<linearGradient id="SVGID_5_" gradientUnits="userSpaceOnUse" x1="46.9489" y1="6.8278" x2="46.9489" y2="105.8898">
			<stop  offset="0" style="stop-color:#FFFFFF;stop-opacity:0"/>
			<stop  offset="1" style="stop-color:#FFFFFF;stop-opacity:0.3"/>
		</linearGradient>
		<path class="st5" d="M46.6,39c-0.1-0.1-0.3-0.1-0.5,0l-3.6,3.6c-0.3,0.3-0.4,0.8-0.2,1.2c0.2,0.4,0.6,0.7,1,0.7h8
			c0.1,0,0.3-0.1,0.3-0.2c0.1-0.1,0-0.3-0.1-0.4L46.6,39z M43.4,43.9c-0.2,0-0.4-0.1-0.4-0.3c-0.1-0.2,0-0.4,0.1-0.5l3.3-3.4
			l4.2,4.2H43.4z"/>
		<linearGradient id="SVGID_6_" gradientUnits="userSpaceOnUse" x1="45.447" y1="6.8278" x2="45.447" y2="105.8898">
			<stop  offset="0" style="stop-color:#FFFFFF;stop-opacity:0"/>
			<stop  offset="1" style="stop-color:#FFFFFF;stop-opacity:0.3"/>
		</linearGradient>
		<path class="st6" d="M39.4,44.5c0,0,0.1,0,0.1,0c0.1,0,0.2,0,0.2-0.1l11.9-11.9c0.1-0.1,0.1-0.2,0.1-0.4c-0.1-0.1-0.2-0.2-0.3-0.2
			l-2.9,0c-0.8,0-1.5,0.3-2.1,0.9l-3.5,3.5v-4.1c0-0.2-0.1-0.3-0.3-0.3h-0.1c0,0,0,0,0,0c-0.9,0-1.7,0.3-2.3,0.9
			c-0.6,0.6-0.9,1.4-0.9,2.3v9C39.2,44.3,39.3,44.4,39.4,44.5z M39.8,35.2c0-0.7,0.3-1.3,0.8-1.8c0.4-0.4,1-0.7,1.6-0.7v4.5
			c0,0.1,0.1,0.3,0.2,0.3c0.1,0,0.3,0,0.4-0.1l4.1-4.1c0.4-0.4,1-0.7,1.6-0.7l2.1,0L39.8,43.4V35.2z"/>
		<linearGradient id="SVGID_7_" gradientUnits="userSpaceOnUse" x1="22.5659" y1="6.8278" x2="22.5659" y2="105.8898">
			<stop  offset="0" style="stop-color:#FFFFFF;stop-opacity:0"/>
			<stop  offset="1" style="stop-color:#FFFFFF;stop-opacity:0.3"/>
		</linearGradient>
		<path class="st7" d="M22.2,63.5c-0.1-0.1-0.3-0.1-0.5,0L18.2,67c-0.3,0.3-0.4,0.8-0.2,1.2c0.2,0.4,0.6,0.7,1,0.7h8
			c0.1,0,0.3-0.1,0.3-0.2c0.1-0.1,0-0.3-0.1-0.4L22.2,63.5z M19,68.3c-0.2,0-0.4-0.1-0.4-0.3c-0.1-0.2,0-0.4,0.1-0.5l3.3-3.4
			l4.2,4.2H19z"/>
		<linearGradient id="SVGID_8_" gradientUnits="userSpaceOnUse" x1="21.0648" y1="6.8278" x2="21.0648" y2="105.8898">
			<stop  offset="0" style="stop-color:#FFFFFF;stop-opacity:0"/>
			<stop  offset="1" style="stop-color:#FFFFFF;stop-opacity:0.3"/>
		</linearGradient>
		<path class="st8" d="M27,56.4l-2.9,0c-0.8,0-1.5,0.3-2.1,0.9l-3.5,3.5v-4.1c0-0.2-0.1-0.3-0.3-0.3H18c0,0,0,0,0,0
			c-0.9,0-1.7,0.3-2.3,0.9c-0.6,0.6-0.9,1.4-0.9,2.3v9c0,0.1,0.1,0.3,0.2,0.3c0,0,0.1,0,0.1,0c0.1,0,0.2,0,0.2-0.1L27.2,57
			c0.1-0.1,0.1-0.2,0.1-0.4C27.3,56.5,27.1,56.4,27,56.4z M15.5,67.8v-8.2c0-0.7,0.3-1.3,0.8-1.8c0.4-0.4,1-0.7,1.6-0.7v4.5
			c0,0.1,0.1,0.3,0.2,0.3c0.1,0,0.3,0,0.4-0.1l4.1-4.1c0.4-0.4,1-0.7,1.6-0.7l2.1,0L15.5,67.8z"/>
		<linearGradient id="SVGID_9_" gradientUnits="userSpaceOnUse" x1="46.9489" y1="6.8278" x2="46.9489" y2="105.8898">
			<stop  offset="0" style="stop-color:#FFFFFF;stop-opacity:0"/>
			<stop  offset="1" style="stop-color:#FFFFFF;stop-opacity:0.3"/>
		</linearGradient>
		<path class="st9" d="M46.6,63.5c-0.1-0.1-0.3-0.1-0.5,0L42.6,67c-0.3,0.3-0.4,0.8-0.2,1.2c0.2,0.4,0.6,0.7,1,0.7h8
			c0.1,0,0.3-0.1,0.3-0.2c0.1-0.1,0-0.3-0.1-0.4L46.6,63.5z M43.4,68.3c-0.2,0-0.4-0.1-0.4-0.3c-0.1-0.2,0-0.4,0.1-0.5l3.3-3.4
			l4.2,4.2H43.4z"/>
		<linearGradient id="SVGID_10_" gradientUnits="userSpaceOnUse" x1="45.447" y1="6.8278" x2="45.447" y2="105.8898">
			<stop  offset="0" style="stop-color:#FFFFFF;stop-opacity:0"/>
			<stop  offset="1" style="stop-color:#FFFFFF;stop-opacity:0.3"/>
		</linearGradient>
		<path class="st10" d="M39.4,68.9c0,0,0.1,0,0.1,0c0.1,0,0.2,0,0.2-0.1L51.6,57c0.1-0.1,0.1-0.2,0.1-0.4c-0.1-0.1-0.2-0.2-0.3-0.2
			l-2.9,0c-0.8,0-1.5,0.3-2.1,0.9l-3.5,3.5v-4.1c0-0.2-0.1-0.3-0.3-0.3h-0.1c0,0,0,0,0,0c-0.9,0-1.7,0.3-2.3,0.9
			c-0.6,0.6-0.9,1.4-0.9,2.3v9C39.2,68.7,39.3,68.9,39.4,68.9z M39.8,59.6c0-0.7,0.3-1.3,0.8-1.8c0.4-0.4,1-0.7,1.6-0.7v4.5
			c0,0.1,0.1,0.3,0.2,0.3c0.1,0,0.3,0,0.4-0.1l4.1-4.1c0.4-0.4,1-0.7,1.6-0.7l2.1,0L39.8,67.8V59.6z"/>
		<linearGradient id="SVGID_11_" gradientUnits="userSpaceOnUse" x1="46.9489" y1="6.8278" x2="46.9489" y2="105.8898">
			<stop  offset="0" style="stop-color:#FFFFFF;stop-opacity:0"/>
			<stop  offset="1" style="stop-color:#FFFFFF;stop-opacity:0.3"/>
		</linearGradient>
		<path class="st11" d="M46.6,87.8c-0.1-0.1-0.3-0.1-0.5,0l-3.6,3.6c-0.3,0.3-0.4,0.8-0.2,1.2c0.2,0.4,0.6,0.7,1,0.7h8
			c0.1,0,0.3-0.1,0.3-0.2c0.1-0.1,0-0.3-0.1-0.4L46.6,87.8z M43.4,92.7c-0.2,0-0.4-0.1-0.4-0.3c-0.1-0.2,0-0.4,0.1-0.5l3.3-3.4
			l4.2,4.2H43.4z"/>
		<linearGradient id="SVGID_12_" gradientUnits="userSpaceOnUse" x1="45.447" y1="6.8278" x2="45.447" y2="105.8898">
			<stop  offset="0" style="stop-color:#FFFFFF;stop-opacity:0"/>
			<stop  offset="1" style="stop-color:#FFFFFF;stop-opacity:0.3"/>
		</linearGradient>
		<path class="st12" d="M51.4,80.8h-2.9c-0.8,0-1.5,0.3-2.1,0.9l-3.5,3.5v-4.1c0-0.2-0.1-0.3-0.3-0.3h-0.1c-1.8,0-3.2,1.4-3.2,3.2v9
			c0,0.1,0.1,0.3,0.2,0.3c0,0,0.1,0,0.1,0c0.1,0,0.2,0,0.2-0.1l11.9-11.9c0.1-0.1,0.1-0.2,0.1-0.4C51.6,80.9,51.5,80.8,51.4,80.8z
			 M39.8,92.2V84c0-1.4,1.1-2.5,2.4-2.6V86c0,0.1,0.1,0.3,0.2,0.3c0.1,0,0.3,0,0.4-0.1l4.1-4.1c0.4-0.4,1-0.7,1.6-0.7h2.1L39.8,92.2
			z"/>
		<linearGradient id="SVGID_13_" gradientUnits="userSpaceOnUse" x1="71.2928" y1="6.8278" x2="71.2928" y2="105.8898">
			<stop  offset="0" style="stop-color:#FFFFFF;stop-opacity:0"/>
			<stop  offset="1" style="stop-color:#FFFFFF;stop-opacity:0.3"/>
		</linearGradient>
		<path class="st13" d="M71,14.7c-0.1-0.1-0.3-0.1-0.5,0l-3.6,3.6c-0.3,0.3-0.4,0.8-0.2,1.2c0.2,0.4,0.6,0.7,1,0.7h8
			c0.1,0,0.3-0.1,0.3-0.2c0.1-0.1,0-0.3-0.1-0.4L71,14.7z M67.7,19.5c-0.2,0-0.4-0.1-0.4-0.3c-0.1-0.2,0-0.4,0.1-0.5l3.3-3.4
			l4.2,4.2H67.7z"/>
		<linearGradient id="SVGID_14_" gradientUnits="userSpaceOnUse" x1="69.7909" y1="6.8278" x2="69.7909" y2="105.8898">
			<stop  offset="0" style="stop-color:#FFFFFF;stop-opacity:0"/>
			<stop  offset="1" style="stop-color:#FFFFFF;stop-opacity:0.3"/>
		</linearGradient>
		<path class="st14" d="M63.7,20.1c0,0,0.1,0,0.1,0c0.1,0,0.2,0,0.2-0.1L76,8.2c0.1-0.1,0.1-0.2,0.1-0.4c-0.1-0.1-0.2-0.2-0.3-0.2
			h-2.9c-0.8,0-1.5,0.3-2.1,0.9L67.2,12V7.9c0-0.2-0.1-0.3-0.3-0.3h-0.1c-1.8,0-3.2,1.4-3.2,3.2v9C63.5,19.9,63.6,20.1,63.7,20.1z
			 M64.2,10.8c0-1.4,1.1-2.5,2.4-2.6v4.5c0,0.1,0.1,0.3,0.2,0.3c0.1,0,0.3,0,0.4-0.1l4.1-4.1c0.4-0.4,1-0.7,1.6-0.7h2.1L64.2,19
			V10.8z"/>
		<linearGradient id="SVGID_15_" gradientUnits="userSpaceOnUse" x1="71.2928" y1="6.8278" x2="71.2928" y2="105.8898">
			<stop  offset="0" style="stop-color:#FFFFFF;stop-opacity:0"/>
			<stop  offset="1" style="stop-color:#FFFFFF;stop-opacity:0.3"/>
		</linearGradient>
		<path class="st15" d="M71,39c-0.1-0.1-0.3-0.1-0.5,0l-3.6,3.6c-0.3,0.3-0.4,0.8-0.2,1.2c0.2,0.4,0.6,0.7,1,0.7h8
			c0.1,0,0.3-0.1,0.3-0.2c0.1-0.1,0-0.3-0.1-0.4L71,39z M67.7,43.9c-0.2,0-0.4-0.1-0.4-0.3c-0.1-0.2,0-0.4,0.1-0.5l3.3-3.4l4.2,4.2
			H67.7z"/>
		<linearGradient id="SVGID_16_" gradientUnits="userSpaceOnUse" x1="69.7909" y1="6.8278" x2="69.7909" y2="105.8898">
			<stop  offset="0" style="stop-color:#FFFFFF;stop-opacity:0"/>
			<stop  offset="1" style="stop-color:#FFFFFF;stop-opacity:0.3"/>
		</linearGradient>
		<path class="st16" d="M63.7,44.5c0,0,0.1,0,0.1,0c0.1,0,0.2,0,0.2-0.1L76,32.6c0.1-0.1,0.1-0.2,0.1-0.4C76,32.1,75.9,32,75.7,32
			l-2.9,0c-0.8,0-1.5,0.3-2.1,0.9l-3.5,3.5v-4.1c0-0.2-0.1-0.3-0.3-0.3h-0.1c0,0,0,0,0,0c-0.9,0-1.7,0.3-2.3,0.9
			c-0.6,0.6-0.9,1.4-0.9,2.3v9C63.5,44.3,63.6,44.4,63.7,44.5z M64.2,35.2c0-0.7,0.3-1.3,0.8-1.8c0.4-0.4,1-0.7,1.6-0.7v4.5
			c0,0.1,0.1,0.3,0.2,0.3c0.1,0,0.3,0,0.4-0.1l4.1-4.1c0.4-0.4,1-0.7,1.6-0.7l2.1,0L64.2,43.4V35.2z"/>
		<linearGradient id="SVGID_17_" gradientUnits="userSpaceOnUse" x1="95.6751" y1="6.8278" x2="95.6751" y2="105.8898">
			<stop  offset="0" style="stop-color:#FFFFFF;stop-opacity:0"/>
			<stop  offset="1" style="stop-color:#FFFFFF;stop-opacity:0.3"/>
		</linearGradient>
		<path class="st17" d="M95.3,39c-0.1-0.1-0.3-0.1-0.5,0l-3.6,3.6C91,43,90.9,43.4,91,43.9c0.2,0.4,0.6,0.7,1,0.7h8
			c0.1,0,0.3-0.1,0.3-0.2c0.1-0.1,0-0.3-0.1-0.4L95.3,39z M92.1,43.9c-0.2,0-0.4-0.1-0.4-0.3c-0.1-0.2,0-0.4,0.1-0.5l3.4-3.4
			l4.2,4.2H92.1z"/>
		<linearGradient id="SVGID_18_" gradientUnits="userSpaceOnUse" x1="94.174" y1="6.8278" x2="94.174" y2="105.8898">
			<stop  offset="0" style="stop-color:#FFFFFF;stop-opacity:0"/>
			<stop  offset="1" style="stop-color:#FFFFFF;stop-opacity:0.3"/>
		</linearGradient>
		<path class="st18" d="M100.4,32.2c-0.1-0.1-0.2-0.2-0.3-0.2l-2.9,0c-0.8,0-1.5,0.3-2.1,0.9l-3.5,3.5v-4.1c0-0.2-0.1-0.3-0.3-0.3
			h-0.2c0,0,0,0,0,0c-0.9,0-1.7,0.3-2.3,0.9c-0.6,0.6-0.9,1.4-0.9,2.3v9c0,0.1,0.1,0.3,0.2,0.3c0,0,0.1,0,0.1,0c0.1,0,0.2,0,0.2-0.1
			l11.9-11.9C100.4,32.5,100.5,32.3,100.4,32.2z M88.6,43.4v-8.2c0-0.7,0.3-1.3,0.8-1.8c0.4-0.4,1-0.7,1.6-0.7v4.5
			c0,0.1,0.1,0.3,0.2,0.3c0.1,0,0.3,0,0.4-0.1l4.1-4.1c0.4-0.4,1-0.7,1.6-0.7l2.1,0L88.6,43.4z"/>
		<linearGradient id="SVGID_19_" gradientUnits="userSpaceOnUse" x1="71.2928" y1="6.8278" x2="71.2928" y2="105.8898">
			<stop  offset="0" style="stop-color:#FFFFFF;stop-opacity:0"/>
			<stop  offset="1" style="stop-color:#FFFFFF;stop-opacity:0.3"/>
		</linearGradient>
		<path class="st19" d="M76,68.8c0.1-0.1,0-0.3-0.1-0.4l-5-5c-0.1-0.1-0.3-0.1-0.5,0L66.9,67c-0.3,0.3-0.4,0.8-0.2,1.2
			c0.2,0.4,0.6,0.7,1,0.7h8C75.8,69,75.9,68.9,76,68.8z M67.7,68.3c-0.2,0-0.4-0.1-0.4-0.3c-0.1-0.2,0-0.4,0.1-0.5l3.3-3.4l4.2,4.2
			H67.7z"/>
		<linearGradient id="SVGID_20_" gradientUnits="userSpaceOnUse" x1="69.7909" y1="6.8278" x2="69.7909" y2="105.8898">
			<stop  offset="0" style="stop-color:#FFFFFF;stop-opacity:0"/>
			<stop  offset="1" style="stop-color:#FFFFFF;stop-opacity:0.3"/>
		</linearGradient>
		<path class="st20" d="M76,56.6c-0.1-0.1-0.2-0.2-0.3-0.2l-2.9,0c-0.8,0-1.5,0.3-2.1,0.9l-3.5,3.5v-4.1c0-0.2-0.1-0.3-0.3-0.3h-0.1
			c0,0,0,0,0,0c-0.9,0-1.7,0.3-2.3,0.9c-0.6,0.6-0.9,1.4-0.9,2.3v9c0,0.1,0.1,0.3,0.2,0.3c0,0,0.1,0,0.1,0c0.1,0,0.2,0,0.2-0.1
			L76,57C76.1,56.9,76.1,56.7,76,56.6z M64.2,67.8v-8.2c0-0.7,0.3-1.3,0.8-1.8c0.4-0.4,1-0.7,1.6-0.7v4.5c0,0.1,0.1,0.3,0.2,0.3
			c0.1,0,0.3,0,0.4-0.1l4.1-4.1c0.4-0.4,1-0.7,1.6-0.7l2.1,0L64.2,67.8z"/>
		<linearGradient id="SVGID_21_" gradientUnits="userSpaceOnUse" x1="95.6751" y1="6.8278" x2="95.6751" y2="105.8898">
			<stop  offset="0" style="stop-color:#FFFFFF;stop-opacity:0"/>
			<stop  offset="1" style="stop-color:#FFFFFF;stop-opacity:0.3"/>
		</linearGradient>
		<path class="st21" d="M95.3,63.5c-0.1-0.1-0.3-0.1-0.5,0L91.3,67c-0.3,0.3-0.4,0.8-0.2,1.2c0.2,0.4,0.6,0.7,1,0.7h8
			c0.1,0,0.3-0.1,0.3-0.2c0.1-0.1,0-0.3-0.1-0.4L95.3,63.5z M92.1,68.3c-0.2,0-0.4-0.1-0.4-0.3c-0.1-0.2,0-0.4,0.1-0.5l3.4-3.4
			l4.2,4.2H92.1z"/>
		<linearGradient id="SVGID_22_" gradientUnits="userSpaceOnUse" x1="94.174" y1="6.8278" x2="94.174" y2="105.8898">
			<stop  offset="0" style="stop-color:#FFFFFF;stop-opacity:0"/>
			<stop  offset="1" style="stop-color:#FFFFFF;stop-opacity:0.3"/>
		</linearGradient>
		<path class="st22" d="M100.1,56.4l-2.9,0c-0.8,0-1.5,0.3-2.1,0.9l-3.5,3.5v-4.1c0-0.2-0.1-0.3-0.3-0.3h-0.2c0,0,0,0,0,0
			c-0.9,0-1.7,0.3-2.3,0.9c-0.6,0.6-0.9,1.4-0.9,2.3v9c0,0.1,0.1,0.3,0.2,0.3c0,0,0.1,0,0.1,0c0.1,0,0.2,0,0.2-0.1L100.3,57
			c0.1-0.1,0.1-0.2,0.1-0.4C100.4,56.5,100.2,56.4,100.1,56.4z M88.6,67.8v-8.2c0-0.7,0.3-1.3,0.8-1.8c0.4-0.4,1-0.7,1.6-0.7v4.5
			c0,0.1,0.1,0.3,0.2,0.3c0.1,0,0.3,0,0.4-0.1l4.1-4.1c0.4-0.4,1-0.7,1.6-0.7l2.1,0L88.6,67.8z"/>
		<linearGradient id="SVGID_23_" gradientUnits="userSpaceOnUse" x1="71.2928" y1="6.8278" x2="71.2928" y2="105.8898">
			<stop  offset="0" style="stop-color:#FFFFFF;stop-opacity:0"/>
			<stop  offset="1" style="stop-color:#FFFFFF;stop-opacity:0.3"/>
		</linearGradient>
		<path class="st23" d="M71,87.8c-0.1-0.1-0.3-0.1-0.5,0l-3.6,3.6c-0.3,0.3-0.4,0.8-0.2,1.2c0.2,0.4,0.6,0.7,1,0.7h8
			c0.1,0,0.3-0.1,0.3-0.2c0.1-0.1,0-0.3-0.1-0.4L71,87.8z M67.7,92.7c-0.2,0-0.4-0.1-0.4-0.3c-0.1-0.2,0-0.4,0.1-0.5l3.3-3.4
			l4.2,4.2H67.7z"/>
		<linearGradient id="SVGID_24_" gradientUnits="userSpaceOnUse" x1="69.7909" y1="6.8278" x2="69.7909" y2="105.8898">
			<stop  offset="0" style="stop-color:#FFFFFF;stop-opacity:0"/>
			<stop  offset="1" style="stop-color:#FFFFFF;stop-opacity:0.3"/>
		</linearGradient>
		<path class="st24" d="M75.7,80.8h-2.9c-0.8,0-1.5,0.3-2.1,0.9l-3.5,3.5v-4.1c0-0.2-0.1-0.3-0.3-0.3h-0.1c-1.8,0-3.2,1.4-3.2,3.2v9
			c0,0.1,0.1,0.3,0.2,0.3c0,0,0.1,0,0.1,0c0.1,0,0.2,0,0.2-0.1L76,81.4c0.1-0.1,0.1-0.2,0.1-0.4C76,80.9,75.9,80.8,75.7,80.8z
			 M64.2,92.2V84c0-1.4,1.1-2.5,2.4-2.6V86c0,0.1,0.1,0.3,0.2,0.3c0.1,0,0.3,0,0.4-0.1l4.1-4.1c0.4-0.4,1-0.7,1.6-0.7h2.1L64.2,92.2
			z"/>
		<linearGradient id="SVGID_25_" gradientUnits="userSpaceOnUse" x1="94.174" y1="6.8278" x2="94.174" y2="105.8898">
			<stop  offset="0" style="stop-color:#FFFFFF;stop-opacity:0"/>
			<stop  offset="1" style="stop-color:#FFFFFF;stop-opacity:0.3"/>
		</linearGradient>
		<path class="st25" d="M100.1,80.8h-2.9c-0.8,0-1.5,0.3-2.1,0.9l-3.5,3.5v-4.1c0-0.2-0.1-0.3-0.3-0.3h-0.2c-1.8,0-3.2,1.4-3.2,3.2
			v9c0,0.1,0.1,0.3,0.2,0.3c0,0,0.1,0,0.1,0c0.1,0,0.2,0,0.2-0.1l11.9-11.9c0.1-0.1,0.1-0.2,0.1-0.4
			C100.4,80.9,100.2,80.8,100.1,80.8z M88.6,92.2V84c0-1.4,1.1-2.5,2.4-2.6V86c0,0.1,0.1,0.3,0.2,0.3c0.1,0,0.3,0,0.4-0.1l4.1-4.1
			c0.4-0.4,1-0.7,1.6-0.7h2.1L88.6,92.2z"/>
		<linearGradient id="SVGID_26_" gradientUnits="userSpaceOnUse" x1="57.0264" y1="6.8278" x2="57.0264" y2="105.8898">
			<stop  offset="0" style="stop-color:#FFFFFF;stop-opacity:0"/>
			<stop  offset="1" style="stop-color:#FFFFFF;stop-opacity:0.3"/>
		</linearGradient>
		<path class="st26" d="M109.5,55.1c0-0.3,0-0.6,0-0.9c-1.5,1.6-2.6,3.5-3.1,5.7c-1.1-4.7-4.8-8.3-9.4-9.4c4.7-1.1,8.4-4.7,9.4-9.4
			c0.3,1.5,1,2.8,1.8,4c-0.2-1-0.5-2.1-0.8-3.1c-0.1-0.3-0.2-0.5-0.2-0.8c-0.3-1-0.7-2-1.1-3c0,0,0,0,0,0c0,6.5-5.3,11.9-11.9,11.9
			c-6.5,0-11.9-5.3-11.9-11.9c0-6.5,5.3-11.9,11.9-11.9c2.7,0,5.1,0.9,7.1,2.4c-0.3-0.5-0.6-0.9-0.9-1.4c-1-0.6-2.2-1-3.4-1.3
			c0.7-0.2,1.3-0.4,2-0.6c-0.1-0.2-0.3-0.4-0.4-0.5c-1.3,0.5-2.8,0.8-4.4,0.8c-6.5,0-11.9-5.3-11.9-11.9c0-0.9,0.1-1.8,0.3-2.7
			c-0.2-0.1-0.4-0.2-0.6-0.3c0,0.1,0,0.1-0.1,0.2c0-0.1-0.1-0.2-0.1-0.3c-0.3-0.1-0.5-0.3-0.8-0.4c0.3,1.1,0.5,2.3,0.5,3.5
			c0,6.5-5.3,11.9-11.9,11.9c-6.4,0-11.6-5.1-11.8-11.5c0-0.1,0-0.3,0-0.4c0-0.1,0-0.3,0-0.4c0.1-3.5,1.8-6.6,4.3-8.7
			c-0.3,0-0.6,0-0.9-0.1c-1.8,1.7-3.1,3.8-3.7,6.3c-0.6-2.5-2-4.7-3.8-6.4c-0.3,0-0.6,0-0.9,0.1c2.6,2.1,4.3,5.3,4.4,8.8
			c0,0.1,0,0.3,0,0.4c0,0.1,0,0.3,0,0.4c-0.2,6.4-5.4,11.5-11.8,11.5c-6.5,0-11.9-5.3-11.9-11.9c0-1.5,0.3-2.9,0.8-4.3
			c-0.3,0.1-0.5,0.3-0.8,0.4c-0.1,0.3-0.2,0.7-0.3,1c-0.1-0.3-0.2-0.5-0.2-0.8c-0.2,0.1-0.4,0.2-0.6,0.3c0.3,1,0.5,2.1,0.5,3.3
			c0,6.5-5.3,11.9-11.9,11.9c-1.9,0-3.7-0.5-5.3-1.3c-0.1,0.2-0.3,0.3-0.4,0.5c0.9,0.5,1.8,0.8,2.9,1.1c-2.2,0.5-4.2,1.6-5.8,3.1
			c-1.5,2.5-2.9,5.1-4,7.8c0,0.4,0.1,0.9,0.1,1.3c0,2.9-1.1,5.6-2.9,7.7c-0.1,0.4-0.2,0.8-0.2,1.2c1.7-1.6,2.9-3.7,3.4-6.1
			c1.1,4.7,4.8,8.3,9.4,9.4c-4.7,1.1-8.3,4.7-9.4,9.4c-0.6-2.7-2.1-5.1-4.2-6.8c0,0.3,0,0.5-0.1,0.8C7,56,8.5,59.2,8.5,62.7
			c0,2.7-0.9,5.2-2.4,7.2c0.1,0.3,0.1,0.5,0.2,0.8c1.2-1.5,2.1-3.2,2.6-5.1c1.1,4.6,4.7,8.3,9.4,9.4c-3.4,0.8-6.3,3-8,6
			c0.1,0.2,0.2,0.5,0.4,0.7c2-3.8,5.9-6.3,10.5-6.3c6.5,0,11.9,5.3,11.9,11.9c0,5.3-3.5,9.8-8.3,11.3c0.2,0.2,0.4,0.3,0.6,0.5
			c4-1.4,7-4.8,8-8.9c1.1,4.6,4.7,8.3,9.4,9.4c-3.2,0.7-5.9,2.7-7.7,5.4c0.2,0.1,0.4,0.2,0.6,0.3c2.1-3.2,5.8-5.3,9.9-5.3
			c5.9,0,10.7,4.3,11.7,9.9c0.3,0,0.7,0,1,0c0.9-5.6,5.8-9.9,11.7-9.9c3.9,0,7.4,1.9,9.6,4.9c0.2-0.1,0.4-0.2,0.6-0.3
			c-1.7-2.5-4.3-4.3-7.4-5c4.6-1.1,8.3-4.7,9.4-9.4c0.9,3.9,3.6,7,7.2,8.6c0.2-0.1,0.4-0.3,0.6-0.4c-4.3-1.8-7.4-6-7.4-11
			c0-6.5,5.3-11.9,11.9-11.9c4.1,0,7.7,2.1,9.8,5.2c0.1-0.2,0.2-0.4,0.3-0.6c-1.7-2.4-4.3-4.2-7.3-4.9c4.6-1.1,8.3-4.7,9.4-9.4
			c0.3,1.4,0.9,2.7,1.7,3.9c0.1-0.3,0.1-0.6,0.2-0.9c-1-1.7-1.5-3.7-1.5-5.8C106.7,59.8,107.7,57.1,109.5,55.1z M91.4,50.5
			c-4.7,1.1-8.3,4.7-9.4,9.4c-1.1-4.7-4.8-8.3-9.4-9.4c4.7-1.1,8.3-4.7,9.4-9.4C83.1,45.7,86.7,49.4,91.4,50.5z M45.4,50.8
			c6.4,0,11.6,5.1,11.8,11.5c0,0.1,0,0.3,0,0.4c0,0.1,0,0.3,0,0.4c-0.2,6.4-5.4,11.5-11.8,11.5c-6.5,0-11.9-5.3-11.9-11.9
			C33.6,56.1,38.9,50.8,45.4,50.8z M33.3,59.8c-1.1-4.7-4.8-8.3-9.4-9.4c4.7-1.1,8.4-4.7,9.4-9.4c1.1,4.7,4.8,8.3,9.4,9.4
			C38,51.5,34.3,55.2,33.3,59.8z M48.2,50.5c4.6-1.1,8.3-4.7,9.4-9.3c1.1,4.6,4.8,8.2,9.4,9.3c-4.6,1.1-8.3,4.7-9.4,9.3
			C56.5,55.1,52.9,51.5,48.2,50.5z M57.6,65.6c1.1,4.6,4.7,8.2,9.4,9.3c-4.6,1.1-8.3,4.7-9.4,9.3c-1.1-4.6-4.7-8.2-9.4-9.3
			C52.9,73.8,56.5,70.2,57.6,65.6z M58,63.1c0-0.1,0-0.3,0-0.4c0-0.1,0-0.3,0-0.4c0.2-6.4,5.4-11.5,11.8-11.5
			c6.5,0,11.9,5.3,11.9,11.9c0,6.5-5.3,11.9-11.9,11.9C63.4,74.5,58.2,69.4,58,63.1z M82,16.7c1.1,4.6,4.7,8.3,9.4,9.4
			c-4.6,1.1-8.3,4.7-9.4,9.4c-1.1-4.6-4.7-8.3-9.4-9.4C77.3,25,80.9,21.3,82,16.7z M81.7,38.3c0,6.5-5.3,11.9-11.9,11.9
			c-6.4,0-11.6-5.1-11.8-11.5c0-0.1,0-0.3,0-0.4c0-0.1,0-0.3,0-0.4c0.2-6.4,5.4-11.5,11.8-11.5C76.3,26.4,81.7,31.7,81.7,38.3z
			 M57.6,16.8c1.1,4.6,4.7,8.2,9.4,9.3c-4.6,1.1-8.3,4.7-9.4,9.3c-1.1-4.6-4.7-8.2-9.4-9.3C52.9,25,56.5,21.4,57.6,16.8z M57.3,37.9
			c0,0.1,0,0.3,0,0.4c0,0.1,0,0.3,0,0.4c-0.2,6.4-5.4,11.5-11.8,11.5c-6.5,0-11.9-5.3-11.9-11.9c0-6.5,5.3-11.9,11.9-11.9
			C51.8,26.4,57.1,31.5,57.3,37.9z M33.3,16.7c1.1,4.6,4.7,8.3,9.4,9.4c-4.6,1.1-8.3,4.7-9.4,9.4c-1.1-4.6-4.7-8.3-9.4-9.4
			C28.5,25,32.2,21.3,33.3,16.7z M9.2,38.3c0-6.5,5.3-11.9,11.9-11.9c6.5,0,11.9,5.3,11.9,11.9c0,6.5-5.3,11.9-11.9,11.9
			C14.5,50.1,9.2,44.8,9.2,38.3z M9.2,62.7c0-6.5,5.3-11.9,11.9-11.9c6.5,0,11.9,5.3,11.9,11.9c0,6.5-5.3,11.9-11.9,11.9
			C14.5,74.5,9.2,69.2,9.2,62.7z M23.9,74.9c4.6-1.1,8.3-4.7,9.4-9.4c1.1,4.6,4.7,8.3,9.4,9.4c-4.6,1.1-8.3,4.7-9.4,9.4
			C32.2,79.6,28.5,75.9,23.9,74.9z M33.6,87c0-6.5,5.3-11.9,11.9-11.9c6.4,0,11.6,5.1,11.8,11.5c0,0.1,0,0.3,0,0.4
			c0,0.1,0,0.3,0,0.4c-0.2,6.4-5.4,11.5-11.8,11.5C38.9,98.9,33.6,93.6,33.6,87z M57.6,108.5c-1.1-4.6-4.7-8.2-9.4-9.3
			c4.6-1.1,8.3-4.7,9.4-9.3c1.1,4.6,4.7,8.2,9.4,9.3C62.4,100.3,58.7,103.9,57.6,108.5z M69.8,98.9c-6.4,0-11.6-5.1-11.8-11.5
			c0-0.1,0-0.3,0-0.4c0-0.1,0-0.3,0-0.4c0.2-6.4,5.4-11.5,11.8-11.5c6.5,0,11.9,5.3,11.9,11.9C81.7,93.6,76.3,98.9,69.8,98.9z
			 M82,84.2c-1.1-4.6-4.7-8.3-9.4-9.4c4.6-1.1,8.3-4.7,9.4-9.4c1.1,4.6,4.7,8.3,9.4,9.4C86.7,75.9,83.1,79.6,82,84.2z M94.2,74.5
			c-6.5,0-11.9-5.3-11.9-11.9c0-6.5,5.3-11.9,11.9-11.9c6.5,0,11.9,5.3,11.9,11.9C106,69.2,100.7,74.5,94.2,74.5z"/>
		<linearGradient id="SVGID_27_" gradientUnits="userSpaceOnUse" x1="89.5913" y1="6.8278" x2="89.5913" y2="105.8898">
			<stop  offset="0" style="stop-color:#FFFFFF;stop-opacity:0"/>
			<stop  offset="1" style="stop-color:#FFFFFF;stop-opacity:0.3"/>
		</linearGradient>
		<path class="st27" d="M88.1,20.1c0,0,0.1,0,0.1,0c0.1,0,0.2,0,0.2-0.1l2.8-2.8c-0.2-0.1-0.3-0.3-0.5-0.4L88.6,19v-4
			c-0.2-0.2-0.4-0.3-0.7-0.5v5.2C87.9,19.9,88,20.1,88.1,20.1z"/>
		<linearGradient id="SVGID_28_" gradientUnits="userSpaceOnUse" x1="92.6847" y1="6.8278" x2="92.6847" y2="105.8898">
			<stop  offset="0" style="stop-color:#FFFFFF;stop-opacity:0"/>
			<stop  offset="1" style="stop-color:#FFFFFF;stop-opacity:0.3"/>
		</linearGradient>
		<path class="st28" d="M91,19.5c0.2,0.4,0.6,0.7,1,0.7h2.3c-0.2-0.2-0.4-0.4-0.7-0.7h-1.7c-0.2,0-0.4-0.1-0.4-0.3
			c-0.1-0.2,0-0.4,0.1-0.5l0.6-0.6c-0.2-0.1-0.3-0.3-0.5-0.4l-0.5,0.5C91,18.6,90.9,19,91,19.5z"/>
		<linearGradient id="SVGID_29_" gradientUnits="userSpaceOnUse" x1="23.4358" y1="6.8278" x2="23.4358" y2="105.8898">
			<stop  offset="0" style="stop-color:#FFFFFF;stop-opacity:0"/>
			<stop  offset="1" style="stop-color:#FFFFFF;stop-opacity:0.3"/>
		</linearGradient>
		<path class="st29" d="M27.3,20c0.1-0.1,0-0.3-0.1-0.4l-3.3-3.3c-0.2,0.1-0.3,0.3-0.5,0.4l2.8,2.8h-5.9c-0.2,0.2-0.4,0.4-0.7,0.7
			H27C27.1,20.2,27.2,20.1,27.3,20z"/>
		<linearGradient id="SVGID_30_" gradientUnits="userSpaceOnUse" x1="21.0648" y1="6.8278" x2="21.0648" y2="105.8898">
			<stop  offset="0" style="stop-color:#FFFFFF;stop-opacity:0"/>
			<stop  offset="1" style="stop-color:#FFFFFF;stop-opacity:0.3"/>
		</linearGradient>
		<path class="st30" d="M27.3,81c-0.1-0.1-0.2-0.2-0.3-0.2h-2.9c-0.8,0-1.5,0.3-2.1,0.9l-3.5,3.5v-4.1c0-0.2-0.1-0.3-0.3-0.3H18
			c-1.8,0-3.2,1.4-3.2,3.2v4.2c0.2,0.3,0.4,0.6,0.7,0.9V84c0-1.4,1.1-2.5,2.4-2.6V86c0,0.1,0.1,0.3,0.2,0.3c0.1,0,0.3,0,0.4-0.1
			l4.1-4.1c0.4-0.4,1-0.7,1.6-0.7h2.1l-9.4,9.4c0.1,0.2,0.3,0.3,0.4,0.5l10-10C27.3,81.3,27.4,81.1,27.3,81z"/>
		<linearGradient id="SVGID_31_" gradientUnits="userSpaceOnUse" x1="22.5779" y1="6.8278" x2="22.5779" y2="105.8898">
			<stop  offset="0" style="stop-color:#FFFFFF;stop-opacity:0"/>
			<stop  offset="1" style="stop-color:#FFFFFF;stop-opacity:0.3"/>
		</linearGradient>
		<path class="st31" d="M27.3,93.2c0.1-0.1,0-0.3-0.1-0.4l-5-5c-0.1-0.1-0.3-0.1-0.5,0l-3.6,3.6c-0.2,0.2-0.3,0.4-0.3,0.6
			c0.4,0.5,0.8,0.9,1.3,1.4H27C27.1,93.4,27.2,93.3,27.3,93.2z M19,92.7c-0.2,0-0.4-0.1-0.4-0.3c-0.1-0.2,0-0.4,0.1-0.5l3.3-3.4
			l4.2,4.2H19z"/>
		<linearGradient id="SVGID_32_" gradientUnits="userSpaceOnUse" x1="72.3361" y1="6.8278" x2="72.3361" y2="105.8898">
			<stop  offset="0" style="stop-color:#FFFFFF;stop-opacity:0"/>
			<stop  offset="1" style="stop-color:#FFFFFF;stop-opacity:0.3"/>
		</linearGradient>
		<path class="st32" d="M75.7,105.2l-2.9,0c-0.8,0-1.5,0.3-2.1,0.9l-2.2,2.2c0.4-0.1,0.8-0.2,1.2-0.3l1.4-1.4c0.4-0.4,1-0.7,1.6-0.7
			l2.1,0l-0.8,0.8c0.5-0.2,1-0.3,1.5-0.5l0.4-0.4c0.1-0.1,0.1-0.2,0.1-0.4C76,105.2,75.9,105.2,75.7,105.2z"/>
		<linearGradient id="SVGID_33_" gradientUnits="userSpaceOnUse" x1="65.3816" y1="6.8278" x2="65.3816" y2="105.8898">
			<stop  offset="0" style="stop-color:#FFFFFF;stop-opacity:0"/>
			<stop  offset="1" style="stop-color:#FFFFFF;stop-opacity:0.3"/>
		</linearGradient>
		<path class="st33" d="M66.9,105.2h-0.1c0,0,0,0,0,0c-0.9,0-1.7,0.3-2.3,0.9c-0.6,0.6-0.9,1.4-0.9,2.3v0.7c0.2,0,0.4-0.1,0.7-0.1
			v-0.6c0-0.7,0.3-1.3,0.8-1.8c0.4-0.4,1-0.7,1.6-0.7v2.8c0.2,0,0.4-0.1,0.7-0.1v-3C67.2,105.3,67.1,105.2,66.9,105.2z"/>
		<linearGradient id="SVGID_34_" gradientUnits="userSpaceOnUse" x1="48.0961" y1="6.8278" x2="48.0961" y2="105.8898">
			<stop  offset="0" style="stop-color:#FFFFFF;stop-opacity:0"/>
			<stop  offset="1" style="stop-color:#FFFFFF;stop-opacity:0.3"/>
		</linearGradient>
		<path class="st34" d="M51.4,105.2l-2.9,0c-0.8,0-1.5,0.3-2.1,0.9l-2,2c0.3,0.1,0.5,0.1,0.8,0.2l1.7-1.7c0.4-0.4,1-0.7,1.6-0.7
			l2.1,0l-2.8,2.8c0.3,0,0.5,0.1,0.8,0.1l3.1-3.1c0.1-0.1,0.1-0.2,0.1-0.4C51.6,105.2,51.5,105.2,51.4,105.2z"/>
		<linearGradient id="SVGID_35_" gradientUnits="userSpaceOnUse" x1="41.3169" y1="6.8278" x2="41.3169" y2="105.8898">
			<stop  offset="0" style="stop-color:#FFFFFF;stop-opacity:0"/>
			<stop  offset="1" style="stop-color:#FFFFFF;stop-opacity:0.3"/>
		</linearGradient>
		<path class="st35" d="M42.6,105.2h-0.1c0,0,0,0,0,0c-0.9,0-1.7,0.3-2.3,0.9c-0.1,0.1-0.3,0.3-0.4,0.5c0.2,0.1,0.4,0.2,0.7,0.2
			c0.1-0.1,0.1-0.2,0.2-0.2c0.4-0.4,1-0.7,1.6-0.7v1.5c0.2,0.1,0.4,0.1,0.7,0.2v-2.1C42.9,105.3,42.7,105.2,42.6,105.2z"/>
		<linearGradient id="SVGID_36_" gradientUnits="userSpaceOnUse" x1="94.3198" y1="6.8278" x2="94.3198" y2="105.8898">
			<stop  offset="0" style="stop-color:#FFFFFF;stop-opacity:0"/>
			<stop  offset="1" style="stop-color:#FFFFFF;stop-opacity:0.3"/>
		</linearGradient>
		<path class="st36" d="M94.9,87.8l-3.6,3.6c-0.3,0.3-0.4,0.8-0.2,1.2c0.2,0.4,0.6,0.7,1,0.7h2.8c0.2-0.2,0.4-0.4,0.6-0.7h-3.4
			c-0.2,0-0.4-0.1-0.4-0.3c-0.1-0.2,0-0.4,0.1-0.5l3.4-3.4l2.1,2.2c0.1-0.2,0.3-0.3,0.4-0.5l-2.3-2.3C95.2,87.7,95,87.7,94.9,87.8z"
			/>
	</g>
	<g>
		<path class="st37" d="M49.1,79.7h30.2L60.5,60.9L47,74.5C45,76.4,46.4,79.7,49.1,79.7z"/>
		<path class="st37" d="M61.6,37.4L46.1,53V34.5l-3.7,0c-4.3,0-7.9,3.5-7.9,7.9v37.1l45-45l-10.9,0C66,34.5,63.5,35.5,61.6,37.4z"/>
	</g>
</g>
</svg>
