<?xml version="1.0" encoding="utf-8"?>
<!-- Generator: Adobe Illustrator 21.1.0, SVG Export Plug-In . SVG Version: 6.00 Build 0)  -->
<svg version="1.1" id="圖層_1" xmlns="http://www.w3.org/2000/svg" xmlns:xlink="http://www.w3.org/1999/xlink" x="0px" y="0px"
	 viewBox="0 0 150 36" style="enable-background:new 0 0 150 36;" xml:space="preserve">
<style type="text/css">
	.st0{enable-background:new    ;}
	.st1{fill:#0084FF;}
</style>
<g>
	<g class="st0">
		<path d="M59.7,12V7.5L57.8,12h-1.1l-1.9-4.6V12h-1.2V5.5h1.7l2,4.7l1.9-4.7h1.7V12H59.7z"/>
		<path d="M62.4,12V5.5h4.1v1.2h-2.8v1.5h2.5v1.1h-2.5v1.5h2.8V12H62.4z"/>
		<path d="M71,7.4c-0.1-0.4-0.4-0.9-1.2-0.9c-0.6,0-1,0.4-1,0.8c0,0.4,0.2,0.6,0.7,0.7l0.9,0.2c1.2,0.2,1.8,1,1.8,1.9
			c0,1-0.8,2-2.4,2c-1.7,0-2.5-1.1-2.6-2l1.2-0.3c0.1,0.6,0.5,1.2,1.4,1.2c0.7,0,1.1-0.3,1.1-0.8c0-0.4-0.3-0.7-0.8-0.8l-0.9-0.2
			c-1-0.2-1.7-0.9-1.7-1.9c0-1.2,1-2,2.3-2c1.6,0,2.2,1,2.3,1.7L71,7.4z"/>
		<path d="M76.5,7.4c-0.1-0.4-0.4-0.9-1.2-0.9c-0.6,0-1,0.4-1,0.8c0,0.4,0.2,0.6,0.7,0.7l0.9,0.2c1.2,0.2,1.8,1,1.8,1.9
			c0,1-0.8,2-2.4,2c-1.7,0-2.5-1.1-2.6-2L74,9.8c0.1,0.6,0.5,1.2,1.4,1.2c0.7,0,1.1-0.3,1.1-0.8c0-0.4-0.3-0.7-0.8-0.8l-0.9-0.2
			c-1-0.2-1.7-0.9-1.7-1.9c0-1.2,1-2,2.3-2c1.6,0,2.2,1,2.3,1.7L76.5,7.4z"/>
		<path d="M78.8,12V5.5h4.1v1.2h-2.8v1.5h2.5v1.1h-2.5v1.5h2.8V12H78.8z"/>
		<path d="M88.4,12l-3-4.6V12h-1.3V5.5h1.6l2.7,4.3V5.5h1.3V12H88.4z"/>
		<path d="M96.1,12L96,11.3c-0.3,0.4-0.9,0.9-1.9,0.9c-1.8,0-3.3-1.3-3.3-3.4c0-2.1,1.6-3.4,3.3-3.4c1.7,0,2.7,1,3,2l-1.2,0.4
			c-0.2-0.6-0.7-1.3-1.8-1.3c-1,0-2,0.7-2,2.2c0,1.5,1,2.2,2.1,2.2c1.2,0,1.7-0.8,1.7-1.3h-2.1V8.6h3.3V12H96.1z"/>
		<path d="M98.4,12V5.5h4.1v1.2h-2.8v1.5h2.5v1.1h-2.5v1.5h2.8V12H98.4z"/>
		<path d="M105.9,9.7V5.5h1.3v4.1c0,0.9,0.5,1.3,1.2,1.3c0.8,0,1.2-0.5,1.2-1.3V5.5h1.3v4.2c0,1.6-1.1,2.5-2.5,2.5
			C107.1,12.2,105.9,11.3,105.9,9.7z"/>
		<path d="M115.6,7.4c-0.1-0.4-0.4-0.9-1.2-0.9c-0.6,0-1,0.4-1,0.8c0,0.4,0.2,0.6,0.7,0.7l0.9,0.2c1.2,0.2,1.8,1,1.8,1.9
			c0,1-0.8,2-2.4,2c-1.7,0-2.5-1.1-2.6-2l1.2-0.3c0.1,0.6,0.5,1.2,1.4,1.2c0.7,0,1.1-0.3,1.1-0.8c0-0.4-0.3-0.7-0.8-0.8l-0.9-0.2
			c-1-0.2-1.7-0.9-1.7-1.9c0-1.2,1-2,2.3-2c1.6,0,2.2,1,2.3,1.7L115.6,7.4z"/>
		<path d="M123.1,5.4c1.8,0,3.4,1.3,3.4,3.4c0,2.1-1.6,3.4-3.4,3.4c-1.8,0-3.3-1.3-3.3-3.4C119.8,6.7,121.4,5.4,123.1,5.4z
			 M123.1,10.9c1,0,2-0.7,2-2.2s-1-2.2-2-2.2c-1,0-2,0.7-2,2.2S122.1,10.9,123.1,10.9z"/>
		<path d="M131.8,12l-3-4.6V12h-1.3V5.5h1.6l2.7,4.3V5.5h1.3V12H131.8z"/>
	</g>
	<g class="st0">
		<path d="M53.6,31.6V16.9h8.9v1.9h-6.9v4.7h6.2v1.9h-6.2v6.2H53.6z"/>
		<path d="M66.5,25.9l2.7-0.4c0.6-0.1,0.8-0.4,0.8-0.7c0-1-0.6-1.8-2.1-1.8c-1.4,0-2.1,0.9-2.3,2l-1.9-0.4c0.2-1.9,1.9-3.2,4.1-3.2
			c3,0,4.1,1.7,4.1,3.7v5c0,0.9,0.1,1.4,0.1,1.6h-1.9c0-0.2-0.1-0.6-0.1-1.3c-0.4,0.7-1.4,1.7-3.2,1.7c-2,0-3.3-1.4-3.3-3
			C63.5,27.1,64.8,26.1,66.5,25.9z M69.9,27.3v-0.5l-3,0.5c-0.8,0.1-1.4,0.6-1.4,1.5c0,0.7,0.6,1.5,1.6,1.5
			C68.7,30.2,69.9,29.5,69.9,27.3z"/>
		<path d="M76.1,26.6c0,2.3,1.4,3.5,3,3.5c1.9,0,2.5-1.3,2.8-2.1l1.7,0.7c-0.5,1.4-1.9,3.1-4.5,3.1c-2.9,0-5-2.3-5-5.3
			c0-3.1,2.2-5.3,5-5.3c2.6,0,4,1.7,4.4,3.2l-1.8,0.7c-0.2-1-1-2.1-2.7-2.1C77.5,23.1,76.1,24.2,76.1,26.6z"/>
		<path d="M94.4,28.7c-0.6,1.8-2.1,3.2-4.5,3.2c-2.7,0-5-2-5-5.3c0-3.1,2.3-5.3,4.8-5.3c3.1,0,4.8,2.1,4.8,5.2c0,0.2,0,0.5,0,0.6H87
			c0,1.8,1.3,3,3,3c1.6,0,2.4-0.9,2.8-2L94.4,28.7z M92.4,25.6c0-1.4-1-2.6-2.7-2.6c-1.6,0-2.6,1.3-2.7,2.6H92.4z"/>
		<path d="M97,31.6v-15h1.9V23c0.5-0.9,1.6-1.7,3.3-1.7c3,0,4.6,2.3,4.6,5.2c0,3-1.7,5.3-4.6,5.3c-1.5,0-2.6-0.6-3.2-1.7v1.5H97z
			 M101.8,23c-1.7,0-3,1.4-3,3.5s1.2,3.6,3,3.6c1.8,0,2.9-1.4,2.9-3.6S103.6,23,101.8,23z"/>
		<path d="M118.5,26.6c0,3.1-2.1,5.3-5.1,5.3c-3,0-5.1-2.3-5.1-5.3c0-3,2.1-5.3,5.1-5.3C116.4,21.3,118.5,23.5,118.5,26.6z
			 M116.6,26.6c0-2.3-1.4-3.6-3.1-3.6c-1.7,0-3.1,1.2-3.1,3.6c0,2.3,1.4,3.6,3.1,3.6C115.1,30.1,116.6,28.9,116.6,26.6z"/>
		<path d="M130.4,26.6c0,3.1-2.1,5.3-5.1,5.3c-3,0-5.1-2.3-5.1-5.3c0-3,2.1-5.3,5.1-5.3C128.3,21.3,130.4,23.5,130.4,26.6z
			 M128.4,26.6c0-2.3-1.4-3.6-3.1-3.6c-1.7,0-3.1,1.2-3.1,3.6c0,2.3,1.4,3.6,3.1,3.6C126.9,30.1,128.4,28.9,128.4,26.6z"/>
		<path d="M137.5,25.8l4.3,5.8h-2.4l-3.2-4.4l-1.4,1.4v3h-1.9v-15h1.9V26l4.3-4.4h2.7L137.5,25.8z"/>
	</g>
	<path class="st1" d="M23.8,1.3c-8.6,0-15.6,6.9-15.6,15.5c0,4.9,2.3,9.2,5.8,12.1v5.9l5.3-3.1c1.4,0.4,2.9,0.6,4.5,0.6
		c8.6,0,15.6-6.9,15.6-15.5C39.4,8.2,32.4,1.3,23.8,1.3z M25.3,22.1l-4-4.5l-7.8,4.5l8.5-9.7l4.1,4.5l7.7-4.5L25.3,22.1z"/>
</g>
</svg>
