<?xml version="1.0" encoding="utf-8"?>
<!-- Generator: Adobe Illustrator 21.1.0, SVG Export Plug-In . SVG Version: 6.00 Build 0)  -->
<svg version="1.1" id="圖層_1" xmlns="http://www.w3.org/2000/svg" xmlns:xlink="http://www.w3.org/1999/xlink" x="0px" y="0px"
	 viewBox="0 0 80 80" style="enable-background:new 0 0 80 80;" xml:space="preserve">
<style type="text/css">
	.st0{fill:#85CAFF;}
</style>
<g>
	<path class="st0" d="M57.5,46.8h-35c-1.5,0-2.7,1.2-2.7,2.8v5c0,1.5,1.2,2.8,2.7,2.8h35c1.5,0,2.7-1.2,2.7-2.8v-5
		C60.3,48,59,46.8,57.5,46.8z M57.6,50.1v3.9c0,0.4-0.4,0.7-0.9,0.7H23.3c-0.5,0-0.9-0.3-0.9-0.7v-3.9c0-0.4,0.4-0.7,0.9-0.7h33.4
		C57.2,49.4,57.6,49.7,57.6,50.1z"/>
	<path class="st0" d="M57.5,21.7h-35c-1.5,0-2.7,1.2-2.7,2.8v5c0,1.5,1.2,2.8,2.7,2.8h35c1.5,0,2.7-1.2,2.7-2.8v-5
		C60.3,23,59,21.7,57.5,21.7z M57.6,25.1v3.9c0,0.4-0.4,0.7-0.9,0.7H23.3c-0.5,0-0.9-0.3-0.9-0.7v-3.9c0-0.4,0.4-0.7,0.9-0.7h33.4
		C57.2,24.3,57.6,24.7,57.6,25.1z"/>
	<path class="st0" d="M57.5,34.2h-35c-1.5,0-2.7,1.2-2.7,2.8v5c0,1.5,1.2,2.8,2.7,2.8h35c1.5,0,2.7-1.2,2.7-2.8v-5
		C60.3,35.5,59,34.2,57.5,34.2z M57.6,37.6v3.9c0,0.4-0.4,0.7-0.9,0.7H23.3c-0.5,0-0.9-0.3-0.9-0.7v-3.9c0-0.4,0.4-0.7,0.9-0.7h33.4
		C57.2,36.9,57.6,37.2,57.6,37.6z"/>
</g>
</svg>
