<?xml version="1.0" encoding="utf-8"?>
<!-- Generator: Adobe Illustrator 21.1.0, SVG Export Plug-In . SVG Version: 6.00 Build 0)  -->
<svg version="1.1" id="圖層_1" xmlns="http://www.w3.org/2000/svg" xmlns:xlink="http://www.w3.org/1999/xlink" x="0px" y="0px"
	 viewBox="0 0 80 80" style="enable-background:new 0 0 80 80;" xml:space="preserve">
<style type="text/css">
	.st0{fill:#85CAFF;}
</style>
<g>
	<path class="st0" d="M43.2,51.9L43.2,51.9c0.7,0,1.2-0.6,1.3-1.3c0-0.7-0.6-1.2-1.3-1.3H28.2c-0.7,0-1.2,0.6-1.2,1.3
		c0,0.7,0.6,1.2,1.3,1.3H43.2z"/>
	<path class="st0" d="M50,56.4H23.8c-0.3,0-0.5-0.2-0.6-0.6V28.5h33.2v14.1c0,0.7,0.6,1.2,1.3,1.3c0.7,0,1.2-0.6,1.3-1.3V22.9
		c0-1.7-1.3-3.1-3-3.1H23.8c-1.7,0-3.1,1.4-3,3.1v32.9c0,1.7,1.3,3.1,3,3.1l26.2,0c0.7,0,1.2-0.6,1.2-1.3C51.2,57,50.6,56.4,50,56.4
		z M56.4,22.9v3H23.2v-3l0-0.1c0-0.1,0.1-0.3,0.2-0.4c0.1-0.1,0.2-0.1,0.4-0.1h32.1C56.2,22.3,56.4,22.6,56.4,22.9z"/>
	<path class="st0" d="M58.4,52.6l-1.6,0c-0.2,0-0.4-0.2-0.4-0.5c0-0.3,0.2-0.5,0.4-0.5h2.7c0.7,0,1.2-0.6,1.3-1.3
		c0-0.7-0.6-1.2-1.3-1.3h-0.7v-0.4c0-0.7-0.6-1.2-1.3-1.3c-0.7,0-1.2,0.6-1.3,1.3v0.5c-1.4,0.3-2.4,1.5-2.4,3c0,1.6,1.2,2.9,2.8,3
		l1.5,0c0.2,0,0.4,0.2,0.4,0.5c0,0.3-0.2,0.5-0.4,0.5h-2.7c-0.7,0-1.2,0.6-1.3,1.3c0,0.7,0.6,1.2,1.3,1.3h0.8V59
		c0,0.7,0.6,1.2,1.2,1.3c0.7,0,1.2-0.6,1.3-1.3v-0.5c1.4-0.3,2.4-1.5,2.4-3C61.3,54,60,52.6,58.4,52.6z"/>
	<path class="st0" d="M50.2,33.2h-22c-0.7,0-1.2,0.6-1.3,1.3c0,0.7,0.6,1.2,1.3,1.3h22c0.7,0,1.2-0.6,1.3-1.3
		C51.5,33.8,50.9,33.2,50.2,33.2z"/>
	<path class="st0" d="M50.2,38.6h-22c-0.7,0-1.2,0.6-1.3,1.3c0,0.7,0.6,1.2,1.3,1.3h22c0.7,0,1.2-0.6,1.3-1.3
		C51.5,39.1,50.9,38.6,50.2,38.6z"/>
	<path class="st0" d="M50.2,43.9h-22c-0.7,0-1.2,0.6-1.3,1.3c0,0.7,0.6,1.2,1.3,1.3h22c0.7,0,1.2-0.6,1.3-1.3
		C51.5,44.5,50.9,43.9,50.2,43.9z"/>
</g>
</svg>
