<?xml version="1.0" encoding="utf-8"?>
<!-- Generator: Adobe Illustrator 21.1.0, SVG Export Plug-In . SVG Version: 6.00 Build 0)  -->
<svg version="1.1" id="圖層_1" xmlns="http://www.w3.org/2000/svg" xmlns:xlink="http://www.w3.org/1999/xlink" x="0px" y="0px"
	 viewBox="0 0 80 80" style="enable-background:new 0 0 80 80;" xml:space="preserve">
<style type="text/css">
	.st0{fill-rule:evenodd;clip-rule:evenodd;fill:#85CAFF;}
</style>
<g>
	<g>
		<path class="st0" d="M59.9,34.1C59.9,34.1,59.9,34.1,59.9,34.1l-0.8,0c-1.1-3.1-3-5.8-5.4-7.9c-0.4-1.5-0.1-3.1,0.8-4.4
			c0.5-0.8,0.5-1.8,0.1-2.6c-0.4-0.8-1.2-1.3-2-1.3h-0.3c-2.6,0.3-5,1.6-6.7,3.6c-2.1-0.6-4.2-0.9-6.4-0.9c-5.5,0-10.8,2-14.9,5.7
			c-4,3.6-6.2,8.7-6.2,14c0,1.4,0.2,2.7,0.4,4.1v0.2c0.3,1.4,0.8,2.7,1.4,3.9c0.8,2.1,2,4,3.5,5.7c1.4,1.6,2.2,3.7,2.3,5.8v0.8
			c0.1,1.2,1.1,2.1,2.3,2.1h6.9c1.3,0,2.3-1.1,2.3-2.4v-0.5c1.1,0.1,2.2,0.1,3.2,0.1v0.5c0,1.3,1,2.4,2.3,2.4h7.1
			c1.3-0.1,2.3-1.1,2.3-2.4v-1.8c0.1-1.6,0.8-3.1,2-4.2l0.2-0.2l0.1-0.1c2.3-2.1,4-4.8,5-7.8h0.7c1.8-0.1,3.3-1.6,3.2-3.4v-5.4
			C63.1,35.9,61.7,34.3,59.9,34.1z M60.8,43L60.8,43c0,0.6-0.4,1-1,1.1h-1.4c-0.5,0-0.9,0.3-1.1,0.8c-0.9,2.9-2.5,5.6-4.7,7.6
			l-0.3,0.2c-1.6,1.5-2.6,3.6-2.7,5.9v1.8h-6.9v-1.7c0-0.3-0.1-0.7-0.4-0.9c-0.2-0.2-0.5-0.3-0.8-0.3h-0.1c-0.8,0.1-1.5,0.1-2.3,0.2
			c-1,0-2-0.1-2.9-0.2c-0.3-0.1-0.7,0.1-0.9,0.3c-0.2,0.2-0.4,0.6-0.4,0.9v1.8H28v-0.6c-0.1-2.7-1.1-5.3-2.9-7.3
			c-1.3-1.5-2.4-3.2-3.2-5.1v-0.1c-0.5-1.1-0.9-2.2-1.2-3.4c-0.3-1.2-0.5-2.4-0.5-3.6c0-9.5,8.4-17.3,18.8-17.3
			c2.2,0,4.4,0.4,6.5,1.1c0.5,0.2,1,0,1.3-0.5c1.3-1.9,3.3-3.2,5.6-3.3c0.1,0,0.1,0,0.2,0.1c0,0,0,0.1,0,0.1l0,0
			c-1.2,1.9-1.5,4.1-1.1,6.3V27c0,0.4,0.2,0.7,0.4,0.9c2.5,2.1,4.3,4.8,5.3,7.9c0.2,0.5,0.6,0.8,1.1,0.8h1.5c0.6,0,1,0.5,1,1.1V43z
			 M40.3,39.2h-2.5c-1-0.1-1.7-0.9-1.6-1.8c0-0.9,0.8-1.6,1.6-1.6h4.4c0.7,0,1.2-0.6,1.1-1.3c0-0.6-0.5-1.1-1.1-1.2h-2v-1.6
			c0-0.6-0.4-1.2-1.1-1.2c-0.6,0-1.2,0.4-1.2,1.1c0,0.1,0,0.1,0,0.2v1.6h-0.1c-2.2,0.2-3.9,2.2-3.7,4.4c0.2,2,1.7,3.6,3.7,3.7h2.5
			c1,0.1,1.7,0.9,1.6,1.8c0,0.9-0.8,1.6-1.6,1.6h-4.5c-0.7,0-1.2,0.6-1.1,1.3c0,0.6,0.5,1.1,1.1,1.2h2.1v1.6c0,0.6,0.4,1.2,1.1,1.2
			c0.6,0,1.2-0.4,1.2-1.1c0-0.1,0-0.1,0-0.2v-1.6h0.2c2.2-0.1,3.9-1.9,3.8-4.1C44.2,41.1,42.5,39.3,40.3,39.2z"/>
	</g>
</g>
</svg>
