<?xml version="1.0" encoding="utf-8"?>
<!-- Generator: Adobe Illustrator 21.1.0, SVG Export Plug-In . SVG Version: 6.00 Build 0)  -->
<svg version="1.1" id="圖層_1" xmlns="http://www.w3.org/2000/svg" xmlns:xlink="http://www.w3.org/1999/xlink" x="0px" y="0px"
	 viewBox="0 0 80 80" style="enable-background:new 0 0 80 80;" xml:space="preserve">
<style type="text/css">
	.st0{fill-rule:evenodd;clip-rule:evenodd;fill:#85CAFF;}
</style>
<g>
	<g>
		<path class="st0" d="M43.9,55.3c-0.8-0.4-1.7-0.2-2.2,0.6c-0.6,1-1.8,1.3-2.8,0.7c-0.3-0.2-0.6-0.4-0.7-0.7
			c-0.4-0.8-1.4-1-2.2-0.6c-0.8,0.4-1,1.4-0.6,2.2c0.5,0.8,1.1,1.4,1.9,1.9c0.8,0.5,1.7,0.7,2.6,0.7c1.8,0,3.6-1,4.5-2.6
			C44.9,56.7,44.7,55.7,43.9,55.3z M58,47.9c-2.1,0-3.8-1.7-3.8-3.8v-9C54.1,27.3,47.8,21,40,21c-7.8,0-14.1,6.3-14.1,14.1v9
			c0,2.1-1.7,3.8-3.8,3.8h0c-0.9,0-1.6,0.7-1.6,1.6c0,0.9,0.7,1.6,1.6,1.6H58c0.9,0,1.6-0.7,1.6-1.6C59.5,48.6,58.8,47.9,58,47.9z
			 M27.9,47.9c0.7-1.1,1.1-2.5,1.1-3.8v-9c0-6.1,4.9-11,11-11c6.1,0,11,4.9,11,11v9c0,1.4,0.4,2.7,1.1,3.8H27.9z"/>
	</g>
</g>
</svg>
