<?xml version="1.0" encoding="utf-8"?>
<!-- Generator: Adobe Illustrator 21.1.0, SVG Export Plug-In . SVG Version: 6.00 Build 0)  -->
<svg version="1.1" id="圖層_1" xmlns="http://www.w3.org/2000/svg" xmlns:xlink="http://www.w3.org/1999/xlink" x="0px" y="0px"
	 viewBox="0 0 80 80" style="enable-background:new 0 0 80 80;" xml:space="preserve">
<style type="text/css">
	.st0{fill-rule:evenodd;clip-rule:evenodd;fill:#85CAFF;}
</style>
<g>
	<g>
		<path class="st0" d="M39.2,42.8l12.4-0.1c0.6,0,1.1-0.5,1.1-1.1c0.1-0.7-0.5-1.3-1.1-1.3l-12.4,0.1c-0.7,0-1.2,0.6-1.2,1.2
			C38.1,42.2,38.6,42.8,39.2,42.8z M39.2,36h12.4c0.7,0,1.2-0.6,1.2-1.2c0,0,0,0,0-0.1c0-0.6-0.5-1.2-1.2-1.2H39.2
			c-0.6,0-1.1,0.5-1.1,1.1C38.1,35.4,38.6,36,39.2,36z M39.2,29.4h12.4c0.7,0,1.2-0.6,1.2-1.2c0,0,0,0,0-0.1c0-0.6-0.5-1.2-1.2-1.2
			H39.2c-0.6,0-1.1,0.5-1.1,1.1C38.1,28.7,38.6,29.3,39.2,29.4z M51.4,47H39.2c-0.6,0-1.1,0.5-1.1,1.2c0,0.7,0.5,1.3,1.1,1.3h12.2
			c0.7,0,1.2-0.6,1.2-1.2v-0.1C52.6,47.5,52.1,47,51.4,47z M30.1,36h3.1c0.6,0,1.1-0.5,1.1-1.1c0.1-0.7-0.4-1.3-1.1-1.3h-3.1
			c-0.6,0-1.1,0.5-1.1,1.1C28.9,35.4,29.4,36,30.1,36z M30.1,42.7h3.1c0.6,0,1.1-0.5,1.1-1.1c0.1-0.7-0.4-1.3-1.1-1.3h-3.1
			c-0.6,0-1.1,0.5-1.1,1.1C28.9,42.1,29.4,42.7,30.1,42.7z M30.1,49.5h3.1c0.7,0,1.2-0.6,1.2-1.2c0,0,0,0,0-0.1
			c0-0.6-0.5-1.2-1.2-1.2h-3.1c-0.6,0-1.1,0.5-1.1,1.2C28.9,48.8,29.4,49.4,30.1,49.5z M60.8,19H20.1c-0.7,0-1.2,0.6-1.2,1.2
			c0,0.7,0.5,1.2,1.2,1.2h1.7v39.3c0,0.5,0.2,0.9,0.6,1.1c0.2,0.1,0.4,0.2,0.6,0.2c0.2,0,0.5-0.1,0.7-0.2l5.2-3.6l5.2,3.6
			c0.4,0.3,0.9,0.3,1.3,0l5.1-3.6l5.2,3.6c0.4,0.3,0.9,0.3,1.3,0l5.1-3.6l5.2,3.6c0.2,0.1,0.4,0.2,0.6,0.2c0.2,0,0.4-0.1,0.6-0.1
			c0.4-0.2,0.6-0.6,0.6-1.1V21.5h1.8c0.7,0,1.2-0.6,1.2-1.2C62,19.6,61.4,19,60.8,19z M56.6,58.4l-4-2.8c-0.4-0.3-0.9-0.3-1.3,0
			l-5.2,3.6L41,55.7l0,0c-0.4-0.3-0.9-0.3-1.3,0l-5.1,3.6l-5.2-3.6c-0.4-0.3-0.9-0.3-1.3,0l-3.9,2.8v-37h32.4V58.4z M30.1,29.4h3.1
			c0.6,0,1.1-0.5,1.1-1.1c0.1-0.7-0.4-1.3-1.1-1.3h-3.1C29.5,27,29,27.4,29,28C28.9,28.7,29.4,29.3,30.1,29.4z"/>
	</g>
</g>
</svg>
