<?xml version="1.0" encoding="utf-8"?>
<!-- Generator: Adobe Illustrator 21.1.0, SVG Export Plug-In . SVG Version: 6.00 Build 0)  -->
<svg version="1.1" id="圖層_1" xmlns="http://www.w3.org/2000/svg" xmlns:xlink="http://www.w3.org/1999/xlink" x="0px" y="0px"
	 viewBox="0 0 80 80" style="enable-background:new 0 0 80 80;" xml:space="preserve">
<style type="text/css">
	.st0{fill-rule:evenodd;clip-rule:evenodd;fill:#85CAFF;}
</style>
<g>
	<g>
		<path class="st0" d="M52.4,38.7H28.1c-0.7,0-1.3,0.6-1.3,1.3c0,0,0,0,0,0c0,0.7,0.6,1.2,1.3,1.2h24.3c0.7,0,1.3-0.6,1.3-1.3
			S53.1,38.7,52.4,38.7z M43.1,45.3H28.2c-0.6,0.1-1.1,0.5-1.2,1.2c-0.1,0.7,0.5,1.3,1.2,1.4h14.9c0.6-0.1,1.1-0.5,1.2-1.2
			C44.4,46,43.8,45.4,43.1,45.3z M56.5,23.6h-33c0,0,0,0,0,0c-2,0-3.6,1.6-3.6,3.5v25.8c0,1.9,1.6,3.5,3.6,3.5h33
			c2,0,3.6-1.6,3.6-3.5V27.1C60.2,25.2,58.5,23.6,56.5,23.6z M57.5,52.9c0,0.6-0.5,1-1.1,1h-33c-0.6,0-1.1-0.5-1.1-1V33.7h35v2.5
			h0.1V52.9z M57.5,31.2h-35v-4.1l0,0c0-0.5,0.5-1,1-1h33c0.6,0,1.1,0.5,1.1,1V31.2z"/>
	</g>
</g>
</svg>
