<?xml version="1.0" encoding="utf-8"?>
<!-- Generator: Adobe Illustrator 21.1.0, SVG Export Plug-In . SVG Version: 6.00 Build 0)  -->
<svg version="1.1" id="圖層_1" xmlns="http://www.w3.org/2000/svg" xmlns:xlink="http://www.w3.org/1999/xlink" x="0px" y="0px"
	 viewBox="0 0 68 100" style="enable-background:new 0 0 68 100;" xml:space="preserve">
<style type="text/css">
	.st0{fill-rule:evenodd;clip-rule:evenodd;fill:#FFFFFF;}
	.st1{fill:#FFFFFF;}
</style>
<g>
	<g>
		<path class="st0" d="M33.6,37.5c-1.1,0-2,0.9-2,2v6c0,1.1,0.9,2,2,2c1.1,0,2-0.9,2-2v-6C35.6,38.3,34.7,37.5,33.6,37.5z"/>
	</g>
</g>
<g>
	<g>
		<path class="st1" d="M5.7,89.8L4,89.1c-0.9-0.4-1.9-0.8-1.9-1.9c0-1,0.9-1.7,2.2-1.7c1.1,0,1.9,0.4,2.7,1.1l0.8-0.9
			c-0.8-0.9-2.1-1.4-3.4-1.4c-2.1,0-3.7,1.3-3.7,3.1c0,1.7,1.3,2.5,2.4,3L4.6,91c1.1,0.5,1.9,0.9,1.9,2.1c0,1.1-0.9,1.9-2.5,1.9
			c-1.2,0-2.4-0.6-3.2-1.4l-0.9,1c1,1.1,2.4,1.7,4.1,1.7c2.4,0,4-1.5,4-3.3C8.1,91.2,7,90.4,5.7,89.8z M14.2,95
			c-1.6,0-2.7-1.3-2.7-3.3c0-2,1.1-3.3,2.7-3.3c0.7,0,1.2,0.3,1.7,0.8l0.8-1c-0.6-0.5-1.4-1-2.5-1c-2.2,0-4.2,1.7-4.2,4.5
			c0,2.9,1.8,4.5,4.1,4.5c1,0,2-0.4,2.8-1.1l-0.6-1C15.7,94.7,15,95,14.2,95z M20.6,89L20.6,89l-0.2-1.6h-1.2V96h1.5v-5.5
			c0.6-1.5,1.5-2,2.2-2c0.4,0,0.6,0,0.8,0.1l0.3-1.3c-0.3-0.1-0.5-0.2-0.9-0.2C22,87.2,21.2,87.9,20.6,89z M29.1,87.2
			c-2.1,0-4,1.7-4,4.5c0,2.9,1.9,4.5,4,4.5s4-1.6,4-4.5C33.2,88.9,31.3,87.2,29.1,87.2z M29.1,95c-1.5,0-2.5-1.3-2.5-3.3
			c0-2,1-3.3,2.5-3.3s2.5,1.3,2.5,3.3C31.7,93.7,30.6,95,29.1,95z M37.7,95c-0.2,0-0.4-0.2-0.4-0.6v-11h-1.5v10.9
			c0,1.2,0.4,1.9,1.5,1.9c0.4,0,0.6,0,0.8-0.1L38,95C37.9,95,37.8,95,37.7,95z M42.7,95c-0.2,0-0.4-0.2-0.4-0.6v-11h-1.5v10.9
			c0,1.2,0.4,1.9,1.5,1.9c0.4,0,0.6,0,0.8-0.1L43,95C42.8,95,42.7,95,42.7,95z M46.5,83.8c-0.6,0-1,0.3-1,0.9c0,0.5,0.4,0.9,1,0.9
			c0.6,0,1-0.4,1-0.9C47.5,84.1,47.1,83.8,46.5,83.8z M45.8,96h1.5v-8.6h-1.5V96z M54.8,87.2c-1.2,0-2.1,0.6-2.9,1.5h0l-0.1-1.2
			h-1.2V96H52v-6.2c0.9-0.9,1.5-1.3,2.4-1.3c1.1,0,1.6,0.7,1.6,2.3V96h1.5v-5.4C57.5,88.4,56.6,87.2,54.8,87.2z M65,95h-1.7
			c-1.2,0-1.5-0.4-1.5-0.9c0-0.5,0.2-0.8,0.6-1c0.4,0.2,0.9,0.3,1.3,0.3c1.8,0,3.2-1.2,3.2-3c0-0.7-0.3-1.4-0.7-1.8h1.8v-1.1h-3
			c-0.3-0.1-0.7-0.2-1.2-0.2c-1.8,0-3.3,1.2-3.3,3.1c0,1,0.6,1.9,1.1,2.3v0.1c-0.4,0.3-1,0.9-1,1.6c0,0.7,0.3,1.1,0.8,1.4v0.1
			C60.5,96.3,60,97,60,97.7c0,1.5,1.5,2.3,3.6,2.3c2.7,0,4.4-1.4,4.4-3C68,95.6,67,95,65,95z M63.6,88.3c1,0,1.8,0.8,1.8,2
			c0,1.3-0.8,2-1.8,2c-1,0-1.9-0.8-1.9-2C61.8,89,62.6,88.3,63.6,88.3z M63.8,99c-1.6,0-2.5-0.6-2.5-1.5c0-0.5,0.3-1,0.9-1.5
			c0.4,0.1,0.8,0.1,1.1,0.1h1.5c1.1,0,1.8,0.3,1.8,1.1C66.6,98.1,65.5,99,63.8,99z"/>
	</g>
</g>
<g>
	<path class="st1" d="M33.9,25.7L33.9,25.7c-9.7,0-17.5,7.8-17.5,17.4v10.6c0,9.6,7.9,17.3,17.5,17.3c9.7,0,17.5-7.8,17.5-17.3V43
		C51.4,33.5,43.6,25.7,33.9,25.7z M46.4,53.7c0,6.8-5.6,12.3-12.4,12.3c-6.9,0-12.4-5.5-12.4-12.3V43c0-6.8,5.6-12.3,12.4-12.3h0
		c6.9,0,12.4,5.5,12.4,12.3V53.7z"/>
	<path class="st1" d="M33.6,3.5c0.3,0,0.5-0.2,0.5-0.5V0.5c0-0.3-0.2-0.5-0.5-0.5c-0.3,0-0.5,0.2-0.5,0.5V3
		C33.1,3.3,33.3,3.5,33.6,3.5z"/>
	<path class="st1" d="M33.6,13.1c0.3,0,0.5-0.2,0.5-0.5V7.8c0-0.3-0.2-0.5-0.5-0.5c-0.3,0-0.5,0.2-0.5,0.5v4.8
		C33.1,12.9,33.3,13.1,33.6,13.1z"/>
	<path class="st1" d="M33.6,22.7c0.3,0,0.5-0.2,0.5-0.5v-4.8c0-0.3-0.2-0.5-0.5-0.5c-0.3,0-0.5,0.2-0.5,0.5v4.8
		C33.1,22.5,33.3,22.7,33.6,22.7z"/>
</g>
</svg>
