<?xml version="1.0" encoding="utf-8"?>
<!-- Generator: Adobe Illustrator 21.1.0, SVG Export Plug-In . SVG Version: 6.00 Build 0)  -->
<svg version="1.1" id="圖層_1" xmlns="http://www.w3.org/2000/svg" xmlns:xlink="http://www.w3.org/1999/xlink" x="0px" y="0px"
	 viewBox="0 0 150 36" style="enable-background:new 0 0 150 36;" xml:space="preserve">
<style type="text/css">
	.st0{fill:url(#SVGID_1_);}
	.st1{fill:url(#SVGID_2_);}
	.st2{fill:url(#SVGID_3_);}
	.st3{fill:url(#SVGID_4_);}
</style>
<g>
	<path d="M135.8,33.2h-2.2l2.2-4.8l-3.8-8.6h2.3l2.6,6.2h0.1l2.5-6.2h2.4L135.8,33.2z M129.7,27.8L129.7,27.8
		c-0.6,0.7-1.4,1.4-2.8,1.4c-1.9,0-3.6-1.2-3.6-3.1c0-2.1,2.1-3.2,4.2-3.2c1,0,1.9,0.3,2.2,0.5v-0.1c0-1.2-1.1-1.8-2.3-1.8
		c-0.8,0-1.6,0.3-2,1l-1.9-0.8c0.7-1.5,2.3-2.2,3.8-2.2c2.5,0,4.4,1.4,4.4,3.9v5.4h-2.1v-1H129.7z M127.7,24.6
		c-1.1,0-2.3,0.4-2.3,1.5c0,0.9,1,1.2,1.7,1.2c1.2,0,2.4-0.9,2.6-2.2C129.1,24.8,128.6,24.6,127.7,24.6z M119.9,14.7h2.2v14.2h-2.2
		V14.7z M114,23.5h-3v5.4h-2.2V14.7h5.2c2.4,0,4.7,1.7,4.7,4.4S116.4,23.5,114,23.5z M114.1,16.7H111v4.9h3.1c1.6,0,2.5-1.3,2.5-2.4
		C116.6,18,115.7,16.7,114.1,16.7z M100,27.3c1.1,0,1.9-0.5,2.4-1.3l1.6,1c-0.5,0.8-1.8,2.1-4.1,2.1c-2.8,0-4.9-2.1-4.9-4.8
		c0-2.9,2.1-4.8,4.6-4.8s3.8,2,4.2,3.1l0.2,0.5l-6.6,2.7C98.1,26.8,98.9,27.3,100,27.3z M101.6,22.4c-0.2-0.6-1-1-1.8-1
		c-1.1,0-2.6,1-2.6,2.8L101.6,22.4z M91.9,14.7H94v14.2h-2.2L91.9,14.7L91.9,14.7z M85.7,33.5c-2.4,0-3.8-1.6-4.3-2.9l1.9-0.8
		c0.3,0.8,1.2,1.7,2.5,1.7c1.6,0,2.6-1,2.6-2.8V28h-0.1c-0.5,0.6-1.4,1.1-2.6,1.1c-2.5,0-4.7-2.1-4.7-4.8s2.2-4.9,4.7-4.9
		c1.2,0,2.1,0.5,2.6,1.1h0.1v-0.8h2v8.7C90.4,32.1,88.3,33.5,85.7,33.5z M85.9,21.4c-1.5,0-2.7,1.2-2.7,2.9c0,1.7,1.2,2.9,2.7,2.9
		s2.6-1.2,2.6-2.9C88.5,22.7,87.4,21.4,85.9,21.4z M88.1,9.6l-3.3-5.3v1v4.4h-1.1v-7H85l3.2,5.1v-1V2.6h1.1v7H88.1L88.1,9.6z
		 M79,9.8c-1,0-1.9-0.4-2.6-1.1c-0.7-0.7-1.1-1.6-1.1-2.6s0.4-1.9,1.1-2.6c0.6-0.7,1.5-1,2.6-1c1,0,1.9,0.4,2.6,1.1s1.1,1.6,1.1,2.6
		s-0.4,1.9-1.1,2.6C80.9,9.5,80,9.8,79,9.8z M80.8,4.3c-0.5-0.5-1.1-0.7-1.8-0.7c-0.7,0-1.3,0.2-1.8,0.7s-0.7,1.1-0.7,1.9
		s0.2,1.4,0.7,1.9s1.1,0.7,1.8,0.7c0.7,0,1.3-0.2,1.8-0.7s0.7-1.1,0.7-1.9S81.2,4.8,80.8,4.3z M80.1,24.4c0,2.8-2.2,4.8-4.9,4.8
		c-2.7,0-4.9-2.1-4.9-4.8c0-2.8,2.2-4.8,4.9-4.8C77.9,19.5,80.1,21.6,80.1,24.4z M75.2,21.4c-1.5,0-2.8,1.2-2.8,2.9
		c0,1.7,1.3,2.9,2.8,2.9S78,26,78,24.3C77.9,22.6,76.7,21.4,75.2,21.4z M70.7,9.7h-1.1v-6h-1.9V2.6h5v1.1h-1.9L70.7,9.7L70.7,9.7z
		 M65.6,2.6h1.1v7h-1.1V2.6z M69.4,24.4c0,2.8-2.2,4.8-4.9,4.8c-2.7,0-4.9-2.1-4.9-4.8c0-2.8,2.2-4.8,4.9-4.8
		C67.1,19.5,69.4,21.6,69.4,24.4z M64.4,21.4c-1.5,0-2.8,1.2-2.8,2.9c0,1.7,1.3,2.9,2.8,2.9s2.8-1.2,2.8-2.9
		C67.2,22.6,65.9,21.4,64.4,21.4z M60.5,9.7h-1.1v-6h-1.9V2.6h5v1.1h-1.9L60.5,9.7L60.5,9.7z M51.7,16.2c-3.1,0-5.5,2.4-5.5,5.5
		c0,3,2.4,5.5,5.5,5.5c2,0,3.1-0.8,3.8-1.5c0.6-0.6,1-1.4,1.1-2.6h-5V21h7c0.1,0.4,0.1,0.8,0.1,1.3c0,1.5-0.4,3.4-1.8,4.8
		c-1.3,1.4-3,2.1-5.3,2.1c-4.2,0-7.7-3.4-7.7-7.5s3.5-7.5,7.7-7.5c2.3,0,4,0.9,5.2,2.1l-1.5,1.4C54.5,16.9,53.3,16.2,51.7,16.2z
		 M52.4,2.6h4.3v1.1h-3.2v1.9h2.8v1h-2.8v1.9h3.2v1.1h-4.3V2.6z M47.9,9.8c-1,0-1.9-0.4-2.6-1.1c-0.7-0.7-1.1-1.6-1.1-2.6
		s0.4-1.9,1.1-2.6c0.7-0.7,1.6-1.1,2.6-1.1c0.5,0,1,0.1,1.5,0.3s0.8,0.5,1.1,0.8l0.1,0.1l-0.8,0.8l-0.1-0.1c-0.4-0.5-1-0.8-1.8-0.8
		c-0.7,0-1.3,0.2-1.8,0.7s-0.8,1.1-0.8,1.9s0.3,1.4,0.8,1.9s1.1,0.7,1.8,0.7s1.4-0.2,1.8-0.7c0.3-0.3,0.5-0.7,0.5-1.2h-2.5v-1h3.6
		v0.1c0,0.2,0.1,0.4,0.1,0.5c0,1-0.3,1.8-0.9,2.4C49.8,9.5,49,9.8,47.9,9.8z"/>
	<path d="M27.9,22.3l-4.8-4.9L8.8,31.9c0.5,0.6,1.4,0.6,2.4,0.1L27.9,22.3"/>
	
		<linearGradient id="SVGID_1_" gradientUnits="userSpaceOnUse" x1="65.9999" y1="-8.594" x2="65.2928" y2="-7.8868" gradientTransform="matrix(19.102 0 0 14.9554 -1235.2656 148.4048)">
		<stop  offset="0" style="stop-color:#FF3A44"/>
		<stop  offset="1" style="stop-color:#C31162"/>
	</linearGradient>
	<path class="st0" d="M27.9,22.3l-4.8-4.9L8.8,31.9c0.5,0.6,1.4,0.6,2.4,0.1L27.9,22.3"/>
	<path d="M27.9,12.5L11.2,2.9c-1-0.6-1.9-0.5-2.4,0.1l14.3,14.5L27.9,12.5z"/>
	
		<linearGradient id="SVGID_2_" gradientUnits="userSpaceOnUse" x1="65.1288" y1="-8.2548" x2="66.1287" y2="-8.2548" gradientTransform="matrix(19.102 0 0 14.9549 -1235.2656 133.448)">
		<stop  offset="0" style="stop-color:#06E775"/>
		<stop  offset="1" style="stop-color:#00F076"/>
	</linearGradient>
	<path class="st1" d="M27.9,12.5L11.2,2.9c-1-0.6-1.9-0.5-2.4,0.1l14.3,14.5L27.9,12.5z"/>
	<path d="M8.8,2.9C8.5,3.3,8.3,3.8,8.3,4.6v25.7c0,0.7,0.2,1.3,0.5,1.6L8.9,32l14.2-14.4v-0.2v-0.2L8.8,2.9L8.8,2.9z"/>
	
		<linearGradient id="SVGID_3_" gradientUnits="userSpaceOnUse" x1="64.3118" y1="-9.3315" x2="63.6047" y2="-8.6244" gradientTransform="matrix(14.798 0 0 29.154 -932.4647 275.817)">
		<stop  offset="0" style="stop-color:#00A1FF"/>
		<stop  offset="0.26" style="stop-color:#00BEFF"/>
		<stop  offset="0.5" style="stop-color:#00D2FF"/>
		<stop  offset="0.76" style="stop-color:#00DFFF"/>
		<stop  offset="1" style="stop-color:#00E3FF"/>
	</linearGradient>
	<path class="st2" d="M8.8,2.9C8.5,3.3,8.3,3.8,8.3,4.6v25.7c0,0.7,0.2,1.3,0.5,1.6L8.9,32l14.2-14.4v-0.2v-0.2L8.8,2.9L8.8,2.9z"/>
	<path d="M27.8,22.4l-4.7-4.8v-0.2v-0.2l4.7-4.8l0.1,0.1l5.6,3.2c1.6,0.9,1.6,2.4,0,3.4l-5.6,3.2L27.8,22.4z"/>
	
		<linearGradient id="SVGID_4_" gradientUnits="userSpaceOnUse" x1="62.6997" y1="-7.6357" x2="61.6997" y2="-7.6357" gradientTransform="matrix(11.6393 0 0 9.948 -695.0492 93.36)">
		<stop  offset="0" style="stop-color:#FFE000"/>
		<stop  offset="0.84" style="stop-color:#FFBD00"/>
	</linearGradient>
	<path class="st3" d="M27.8,22.4l-4.7-4.8v-0.2v-0.2l4.7-4.8l0.1,0.1l5.6,3.2c1.6,0.9,1.6,2.4,0,3.4l-5.6,3.2L27.8,22.4z"/>
</g>
</svg>
