<?xml version="1.0" encoding="utf-8"?>
<!-- Generator: Adobe Illustrator 21.1.0, SVG Export Plug-In . SVG Version: 6.00 Build 0)  -->
<svg version="1.1" id="圖層_1" xmlns="http://www.w3.org/2000/svg" xmlns:xlink="http://www.w3.org/1999/xlink" x="0px" y="0px"
	 viewBox="0 0 150 36" style="enable-background:new 0 0 150 36;" xml:space="preserve">
<style type="text/css">
	.st0{fill:#00B900;}
</style>
<g>
	<path class="st0" d="M60.4,22.9c0.4,0,0.7,0.3,0.7,0.7v2.6c0,0.4-0.3,0.7-0.7,0.7H50.2h0c-0.2,0-0.4-0.1-0.5-0.2c0,0,0,0,0,0
		c0,0,0,0,0,0c-0.1-0.1-0.2-0.3-0.2-0.5v0V9.9v0c0-0.2,0.1-0.4,0.2-0.5c0,0,0,0,0,0c0,0,0,0,0,0c0.1-0.1,0.3-0.2,0.5-0.2h0h10.2
		c0.4,0,0.7,0.3,0.7,0.7v2.6c0,0.4-0.3,0.7-0.7,0.7h-7V16h7c0.4,0,0.7,0.3,0.7,0.7v2.6c0,0.4-0.3,0.7-0.7,0.7h-7v2.8H60.4z
		 M46.3,26.9h-2.6c-0.1,0-0.1,0-0.2,0c0,0,0,0,0,0c0,0,0,0,0,0c0,0,0,0,0,0c0,0,0,0,0,0c0,0,0,0,0,0c0,0,0,0,0,0c0,0,0,0,0,0
		c0,0,0,0,0,0c-0.1,0-0.1-0.1-0.2-0.2l-7.3-10.1v9.7c0,0.4-0.3,0.7-0.7,0.7h-2.6c-0.4,0-0.7-0.3-0.7-0.7V9.9c0-0.4,0.3-0.7,0.7-0.7
		h2.6c0,0,0,0,0,0c0,0,0,0,0,0c0,0,0,0,0,0c0,0,0,0,0,0c0,0,0,0,0,0c0,0,0,0,0,0c0,0,0,0,0,0c0,0,0,0,0,0c0,0,0,0,0,0c0,0,0,0,0,0
		c0,0,0,0,0,0c0,0,0,0,0,0c0,0,0,0,0,0c0,0,0,0,0,0c0,0,0,0,0,0c0,0,0,0,0,0c0,0,0,0,0,0c0,0,0,0,0,0c0,0,0,0,0.1,0.1L43,19.6V9.9
		c0-0.4,0.3-0.7,0.7-0.7h2.6c0.4,0,0.7,0.3,0.7,0.7v16.3C47,26.6,46.7,26.9,46.3,26.9z M28.6,26.9h-2.6c-0.4,0-0.7-0.3-0.7-0.7V9.9
		c0-0.4,0.3-0.7,0.7-0.7h2.6c0.4,0,0.7,0.3,0.7,0.7v16.3C29.3,26.6,29,26.9,28.6,26.9z M22.5,26.9H12.2h0c-0.2,0-0.4-0.1-0.5-0.2
		c0,0,0,0,0,0c0,0,0,0,0,0c-0.1-0.1-0.2-0.3-0.2-0.5v0V9.9c0-0.4,0.3-0.7,0.7-0.7h2.6c0.4,0,0.7,0.3,0.7,0.7v12.9h7
		c0.4,0,0.7,0.3,0.7,0.7v2.6C23.2,26.6,22.8,26.9,22.5,26.9z"/>
	<path d="M131.8,23.2h5.4c0.4,0,0.7,0.1,0.9,0.4c0.3,0.3,0.4,0.6,0.4,0.9v0.8c0,0.4-0.1,0.7-0.4,0.9c-0.3,0.3-0.6,0.4-0.9,0.4h-8.4
		c-0.4,0-0.7-0.1-0.9-0.4c-0.3-0.3-0.4-0.6-0.4-0.9V10.7c0-0.4,0.1-0.7,0.4-0.9c0.3-0.3,0.6-0.4,0.9-0.4h8.1c0.4,0,0.7,0.1,0.9,0.4
		c0.3,0.3,0.4,0.6,0.4,0.9v0.8c0,0.4-0.1,0.7-0.4,0.9c-0.3,0.3-0.6,0.4-0.9,0.4h-5.2c-0.1,0-0.2,0.1-0.2,0.2v2.9
		c0,0.1,0.1,0.2,0.2,0.2h4.2c0.4,0,0.7,0.1,0.9,0.4c0.3,0.3,0.4,0.6,0.4,0.9v0.8c0,0.4-0.1,0.7-0.4,0.9c-0.3,0.3-0.6,0.4-0.9,0.4
		h-4.2c-0.1,0-0.2,0.1-0.2,0.2V23C131.6,23.1,131.6,23.2,131.8,23.2z M125.6,26.7h-1.9c-0.4,0-0.8-0.1-1.1-0.3
		c-0.3-0.2-0.6-0.5-0.8-0.9l-2.4-4.8c-0.1-0.1-0.1-0.1-0.2-0.1h-1.6c-0.1,0-0.2,0.1-0.2,0.2v4.6c0,0.4-0.1,0.7-0.4,0.9
		c-0.3,0.3-0.6,0.4-0.9,0.4h-1.4c-0.4,0-0.7-0.1-0.9-0.4c-0.3-0.3-0.4-0.6-0.4-0.9V10.7c0-0.4,0.1-0.7,0.4-0.9
		c0.3-0.3,0.6-0.4,0.9-0.4h4.9c4.4,0,6.6,1.8,6.6,5.5c0,2.3-0.9,4-2.8,4.9c-0.1,0-0.1,0.1-0.1,0.2l3.1,5.6c0.1,0.1,0.1,0.3,0.1,0.4
		c0,0.1,0,0.3-0.1,0.4C126.1,26.6,125.9,26.7,125.6,26.7z M121.3,13.1c-0.5-0.3-1.2-0.5-2.2-0.5h-1.6c-0.1,0-0.2,0.1-0.2,0.2v4.3
		c0,0.1,0.1,0.2,0.2,0.2h1.6c1,0,1.7-0.2,2.2-0.6c0.5-0.4,0.7-1,0.7-1.9C122,14,121.8,13.4,121.3,13.1z M104.1,27
		c-2.3,0-4.2-0.8-5.6-2.4c-1.4-1.6-2.1-3.8-2.1-6.7c0-2.8,0.7-5,2.1-6.6c1.4-1.6,3.3-2.4,5.6-2.4c2.3,0,4.2,0.8,5.6,2.4
		c1.4,1.6,2.1,3.8,2.1,6.6c0,2.8-0.7,5-2.1,6.7C108.3,26.2,106.4,27,104.1,27z M106.7,14c-0.6-0.9-1.5-1.4-2.6-1.4
		c-1.1,0-2,0.5-2.6,1.4c-0.6,1-1,2.3-1,3.9c0,1.7,0.3,3,1,4c0.6,1,1.5,1.5,2.6,1.5c1.1,0,2-0.5,2.6-1.5c0.6-1,1-2.3,1-4
		C107.7,16.2,107.3,14.9,106.7,14z M94.9,12.8h-3.1c-0.1,0-0.2,0.1-0.2,0.2v12.4c0,0.4-0.1,0.7-0.4,0.9c-0.3,0.3-0.6,0.4-0.9,0.4
		h-1.4c-0.4,0-0.7-0.1-0.9-0.4c-0.3-0.3-0.4-0.6-0.4-0.9V12.9c0-0.1-0.1-0.2-0.2-0.2h-3.1c-0.4,0-0.7-0.1-0.9-0.4
		c-0.3-0.3-0.4-0.6-0.4-0.9v-0.8c0-0.4,0.1-0.7,0.4-0.9c0.3-0.3,0.6-0.4,0.9-0.4h10.6c0.4,0,0.7,0.1,0.9,0.4
		c0.3,0.3,0.4,0.6,0.4,0.9v0.8c0,0.4-0.1,0.7-0.4,0.9C95.6,12.6,95.3,12.8,94.9,12.8z M81.4,12.8c-0.2,0.3-0.5,0.4-0.9,0.5
		c-0.1,0-0.2,0-0.3,0c-0.3,0-0.5-0.1-0.8-0.2c-0.8-0.4-1.5-0.6-2.4-0.6c-0.6,0-1.1,0.1-1.5,0.4c-0.4,0.3-0.5,0.6-0.5,1.1
		c0,0.2,0,0.3,0.1,0.5c0.1,0.1,0.2,0.3,0.3,0.4c0.1,0.1,0.3,0.2,0.5,0.4c0.2,0.1,0.5,0.2,0.6,0.3c0.2,0.1,0.4,0.2,0.8,0.3
		c0.1,0,0.2,0.1,0.2,0.1l2.1,0.9c2.2,0.9,3.3,2.5,3.3,4.8c0,0.7-0.1,1.4-0.4,2.1c-0.3,0.7-0.7,1.2-1.2,1.7c-0.5,0.5-1.2,0.9-2,1.2
		c-0.8,0.3-1.7,0.4-2.7,0.4c-1.9,0-3.7-0.6-5.3-1.7c-0.3-0.2-0.5-0.5-0.5-0.9c0,0,0-0.1,0-0.1c0-0.3,0.1-0.6,0.3-0.9l0.6-0.8
		c0.2-0.3,0.5-0.4,0.9-0.5c0.1,0,0.1,0,0.2,0c0.3,0,0.5,0.1,0.8,0.2c1.1,0.7,2.1,1,3.1,1c0.7,0,1.3-0.1,1.6-0.4
		c0.4-0.3,0.6-0.6,0.6-1.1c0-0.4-0.2-0.8-0.5-1c-0.3-0.2-0.8-0.5-1.6-0.8c-0.1-0.1-0.2-0.1-0.3-0.1L74.5,19c-1-0.4-1.8-1-2.5-1.8
		c-0.6-0.8-1-1.8-1-3c0-1.5,0.6-2.7,1.7-3.7c1.2-1,2.6-1.5,4.4-1.5c1.7,0,3.2,0.5,4.5,1.4c0.3,0.2,0.5,0.5,0.5,0.9c0,0,0,0.1,0,0.1
		c0,0.3-0.1,0.6-0.3,0.9L81.4,12.8z"/>
</g>
</svg>
