<?xml version="1.0" encoding="utf-8"?>
<!-- Generator: Adobe Illustrator 21.1.0, SVG Export Plug-In . SVG Version: 6.00 Build 0)  -->
<svg version="1.1" id="Capa_1" xmlns="http://www.w3.org/2000/svg" xmlns:xlink="http://www.w3.org/1999/xlink" x="0px" y="0px"
	 viewBox="0 0 48 48" style="enable-background:new 0 0 48 48;" xml:space="preserve">
<path d="M28.3,32.7c0-1.6-0.5-2.6-1.2-3.2c3.8-0.4,7.8-1.9,7.8-8.4c0-1.9-0.7-3.4-1.8-4.6c0.2-0.4,0.8-2.2-0.2-4.5
	c0,0-1.4-0.5-4.7,1.8c-1.4-0.4-2.8-0.6-4.3-0.6c-1.5,0-2.9,0.2-4.3,0.6C16.5,11.5,15,12,15,12c-0.9,2.4-0.3,4.1-0.2,4.5
	c-1.1,1.2-1.8,2.7-1.8,4.6c0,6.6,4,8,7.8,8.5c-0.5,0.4-0.9,1.2-1.1,2.3c-1,0.4-3.4,1.2-5-1.4c0,0-0.9-1.6-2.6-1.8c0,0-1.7,0-0.1,1
	c0,0,1.1,0.5,1.9,2.5c0,0,1,3.3,5.7,2.3c0,1.4,0,2.5,0,2.9c0,0,0,0.1,0,0.1c1.4,0.4,2.8,0.6,4.2,0.6c1.5,0,2.9-0.2,4.2-0.6
	c0,0,0-0.1,0-0.1C28.2,36.8,28.3,35,28.3,32.7z"/>
</svg>
