<?xml version="1.0" encoding="utf-8"?>
<!-- Generator: Adobe Illustrator 21.1.0, SVG Export Plug-In . SVG Version: 6.00 Build 0)  -->
<svg version="1.1" id="Capa_1" xmlns="http://www.w3.org/2000/svg" xmlns:xlink="http://www.w3.org/1999/xlink" x="0px" y="0px"
	 viewBox="0 0 48 48" style="enable-background:new 0 0 48 48;" xml:space="preserve">
<style type="text/css">
	.st0{fill:#F2F2F2;}
	.st1{fill:#8E8E8E;}
</style>
<circle class="st0" cx="24" cy="24" r="24"/>
<g>
	<g>
		<path class="st1" d="M16.1,13.5C16,13.7,16,13.9,16,14.1v19.3c0,0.2,0,0.4,0.1,0.6l10.6-10.2L16.1,13.5z M30.9,19.8l-12.4-7
			c-0.5-0.3-1-0.4-1.4-0.3l10.7,10.3L30.9,19.8z M17,35c0.4,0.2,0.9,0,1.4-0.3l12.5-6.9l-3.2-3.1L17,35z M35.5,22.4l-3.3-1.9
			l-3.4,3.3l3.5,3.3l3.2-1.8C37,24.4,36.4,22.9,35.5,22.4z"/>
	</g>
</g>
</svg>
