<?xml version="1.0" encoding="utf-8"?>
<!-- Generator: Adobe Illustrator 21.1.0, SVG Export Plug-In . SVG Version: 6.00 Build 0)  -->
<svg version="1.1" id="Capa_1" xmlns="http://www.w3.org/2000/svg" xmlns:xlink="http://www.w3.org/1999/xlink" x="0px" y="0px"
	 viewBox="0 0 48 48" style="enable-background:new 0 0 48 48;" xml:space="preserve">
<style type="text/css">
	.st0{fill:#F2F2F2;}
	.st1{fill:#8E8E8E;}
</style>
<circle class="st0" cx="24" cy="24" r="24"/>
<g>
	<g>
		<path class="st1" d="M37.2,23.5c0-0.7-0.1-1.4-0.3-2.1c-0.2-0.8-0.4-1.7-0.8-2.5c-0.3-0.8-0.7-1.5-1.2-2.2c-0.5-0.7-1-1.3-1.6-1.9
			c-0.6-0.6-1.3-1.1-2-1.6c-0.7-0.5-1.5-0.9-2.2-1.2c-0.8-0.3-1.6-0.6-2.5-0.8c-0.9-0.2-1.8-0.3-2.7-0.3c-0.9,0-1.8,0.1-2.7,0.3
			c-0.8,0.2-1.7,0.4-2.5,0.8c-0.8,0.3-1.5,0.7-2.2,1.2c-0.7,0.5-1.4,1-2,1.6c-0.6,0.6-1.1,1.2-1.6,1.9c-0.5,0.7-0.9,1.5-1.2,2.2
			c-0.3,0.8-0.6,1.6-0.8,2.5c-0.1,0.7-0.2,1.3-0.3,2c0,0.2,0,0.4,0,0.6c0,0.9,0.1,1.8,0.3,2.6c0.2,0.8,0.4,1.7,0.8,2.5
			c0.3,0.8,0.7,1.5,1.2,2.2c0.5,0.7,1,1.3,1.6,1.9c0.6,0.6,1.3,1.1,2,1.6c0.7,0.5,1.5,0.9,2.2,1.2c0.8,0.3,1.6,0.6,2.5,0.8
			c0.9,0.2,1.8,0.3,2.7,0.3c0.9,0,1.8-0.1,2.7-0.3c0.9-0.2,1.7-0.4,2.5-0.8c0.8-0.3,1.5-0.7,2.2-1.2c0.7-0.5,1.4-1,2-1.6
			c0.6-0.6,1.1-1.2,1.6-1.9c0.5-0.7,0.9-1.5,1.2-2.2c0.3-0.8,0.6-1.6,0.8-2.5c0.2-0.9,0.3-1.8,0.3-2.6
			C37.2,23.8,37.2,23.7,37.2,23.5z M24,12.8c2.9,0,5.5,1.1,7.4,2.8c0,0-1.6,2.5-5.9,4.1c-1.9-3.5-4-6.3-4.2-6.5
			C22.2,12.9,23.1,12.8,24,12.8z M21.3,13.1L21.3,13.1C21.3,13.1,21.3,13.1,21.3,13.1C21.3,13.1,21.3,13.1,21.3,13.1z M19.2,13.9
			c0.1,0.2,2.2,3,4.2,6.5C18,21.8,13.3,21.7,13,21.7C13.7,18.2,16,15.3,19.2,13.9z M15.6,31.5c-1.8-2-2.9-4.6-2.9-7.5
			c0-0.1,0-0.2,0-0.4c0.2,0,5.8,0.1,11.6-1.6c0.3,0.6,0.6,1.3,0.9,1.9c-0.1,0-0.3,0.1-0.4,0.1C18.7,26,15.6,31.5,15.6,31.5
			C15.6,31.5,15.6,31.5,15.6,31.5z M24,35.2c-2.6,0-5-0.9-6.9-2.4l0,0c0,0-0.1-0.1-0.3-0.2c0.1,0.1,0.2,0.1,0.3,0.2
			c0,0,2.2-4.7,8.8-7c0,0,0.1,0,0.1,0c1.6,4.1,2.2,7.5,2.4,8.5C27,34.9,25.6,35.2,24,35.2z M30.3,33.3c-0.1-0.7-0.7-4-2.2-8
			c3.6-0.6,6.8,0.4,7,0.5C34.6,28.9,32.8,31.6,30.3,33.3z M27.4,23.5c-0.1-0.2-0.2-0.4-0.2-0.6c-0.2-0.4-0.4-0.8-0.5-1.2
			c-0.1-0.1-0.1-0.3-0.2-0.4c4.5-1.8,6.3-4.4,6.3-4.4c1.4,1.7,2.3,3.8,2.5,6.1c0,0.3,0,0.6,0,0.9C35.1,23.9,31.3,23,27.4,23.5z"/>
	</g>
</g>
</svg>
