<?xml version="1.0" encoding="utf-8"?>
<!-- Generator: Adobe Illustrator 21.1.0, SVG Export Plug-In . SVG Version: 6.00 Build 0)  -->
<svg version="1.1" id="Capa_1" xmlns="http://www.w3.org/2000/svg" xmlns:xlink="http://www.w3.org/1999/xlink" x="0px" y="0px"
	 viewBox="0 0 48 48" style="enable-background:new 0 0 48 48;" xml:space="preserve">
<style type="text/css">
	.st0{fill:#F2F2F2;}
	.st1{fill:#8E8E8E;}
</style>
<circle class="st0" cx="24" cy="24" r="24"/>
<path class="st1" d="M15.1,24.8h3.7c0.8,0,2.2,0.4,2.2,2c0,0.9-0.7,1.9-1.5,1.9h-4.5V24.8z M27,17h6.7v2.3H27V17z M32.8,24.8h-4.9
	c0.2-1.4,1.2-2.3,2.5-2.3C31.6,22.5,32.6,23.4,32.8,24.8L32.8,24.8z M27.7,26.3h8.2c0-0.1,0-0.3,0-0.4c0-3.2-2.2-5.8-5.6-5.8
	c-3.4,0-5.6,2.6-5.6,5.8c0,3.2,2.2,5.8,5.6,5.8c3.4,0,5-2,5.5-4.7h-3c-0.3,1.4-1.1,2.3-2.4,2.3C28.9,29.4,27.8,28.1,27.7,26.3
	L27.7,26.3z M24,27.1c0-1.7-1.1-3.2-2.5-3.7c1.1-0.7,1.8-1.9,1.8-3.3c0-2.2-1.7-3.9-3.7-3.9h-7.4v15.6h7.4C22,31.8,24,29.7,24,27.1
	L24,27.1z M18.8,22.5h-3.7v-3.1h3.7c0.8,0,1.5,0.7,1.5,1.6S19.6,22.5,18.8,22.5L18.8,22.5z"/>
</svg>
