<?xml version="1.0" encoding="utf-8"?>
<!-- Generator: Adobe Illustrator 21.1.0, SVG Export Plug-In . SVG Version: 6.00 Build 0)  -->
<svg version="1.1" id="Capa_1" xmlns="http://www.w3.org/2000/svg" xmlns:xlink="http://www.w3.org/1999/xlink" x="0px" y="0px"
	 viewBox="0 0 48 48" style="enable-background:new 0 0 48 48;" xml:space="preserve">
<style type="text/css">
	.st0{fill:url(#SVGID_1_);}
</style>
<linearGradient id="SVGID_1_" gradientUnits="userSpaceOnUse" x1="24" y1="32.9887" x2="24" y2="14.612">
	<stop  offset="0" style="stop-color:#E09B3D"/>
	<stop  offset="0.3" style="stop-color:#C74C4D"/>
	<stop  offset="0.6" style="stop-color:#C21975"/>
	<stop  offset="1" style="stop-color:#7024C4"/>
</linearGradient>
<path class="st0" d="M30.2,13.9H17.8c-2.2,0-3.9,1.8-3.9,3.9v4.1v1.5v6.8c0,2.2,1.8,3.9,3.9,3.9h12.5c2.2,0,3.9-1.8,3.9-3.9v-6.8
	v-1.5v-4.1C34.2,15.6,32.4,13.9,30.2,13.9z M31.4,16.2l0.4,0v0.4v3l-3.4,0l0-3.4L31.4,16.2z M21.1,21.9c0.7-0.9,1.7-1.5,2.9-1.5
	c1.2,0,2.3,0.6,2.9,1.5c0.1,0.1,0.2,0.2,0.2,0.3c0.3,0.5,0.5,1.1,0.5,1.7c0,2-1.6,3.6-3.6,3.6c-2,0-3.6-1.6-3.6-3.6
	c0-0.6,0.2-1.2,0.5-1.7C20.9,22.1,21,22,21.1,21.9z M32.2,30.2c0,1.1-0.9,1.9-2,1.9H17.8c-1.1,0-2-0.9-2-1.9V23v-1.1h3
	c-0.1,0.2-0.1,0.4-0.2,0.6c-0.1,0.5-0.2,1-0.2,1.5c0,3.1,2.5,5.5,5.6,5.5c3.1,0,5.6-2.5,5.6-5.5c0-0.5-0.1-1-0.2-1.5
	c-0.1-0.2-0.1-0.4-0.2-0.6h3V23V30.2z"/>
</svg>
