<svg 
 xmlns="http://www.w3.org/2000/svg"
 xmlns:xlink="http://www.w3.org/1999/xlink"
 width="1.799cm" height="2.716cm">
<path fill-rule="evenodd"  fill="rgb(0, 0, 0)"
 d="M50.780,26.583 C50.406,28.282 48.754,29.102 47.430,28.901 C45.772,28.653 44.856,27.279 44.884,25.677 C44.893,25.086 45.045,24.485 45.036,23.900 C44.997,21.971 44.183,20.190 42.841,18.832 C42.489,18.478 42.108,18.151 41.712,17.850 C39.650,16.273 37.890,14.270 37.537,11.609 C37.443,10.886 37.369,10.095 37.421,9.369 C37.544,7.605 38.136,5.724 39.205,4.317 C40.198,3.003 41.526,1.813 43.023,1.122 C43.845,0.745 44.855,0.400 45.761,0.327 C40.522,0.763 36.402,5.177 36.402,10.559 C36.402,11.193 36.461,11.811 36.569,12.413 C36.648,13.042 36.783,13.670 36.970,14.305 C37.544,16.244 37.906,18.223 38.011,20.240 C38.138,22.601 37.935,24.936 37.392,27.237 C36.160,32.445 33.588,36.865 29.600,40.414 C26.152,43.477 22.160,45.449 17.619,46.294 C15.998,46.595 14.399,46.557 12.801,46.165 C9.100,45.251 7.036,41.757 7.522,38.262 C7.792,36.296 8.293,34.394 9.064,32.562 C10.650,28.779 13.250,25.517 16.546,23.095 C17.460,22.420 18.441,21.808 19.440,21.264 C20.415,20.735 21.417,20.258 22.406,19.762 C22.389,19.750 22.380,19.737 22.365,19.723 C22.166,19.796 21.970,19.863 21.772,19.936 C19.367,20.823 17.196,22.096 15.201,23.717 C12.582,25.841 10.365,28.292 8.742,31.255 C7.417,33.681 6.255,36.182 6.026,39.002 C5.944,40.042 5.892,41.088 6.150,42.112 C6.774,44.645 8.135,46.661 10.349,48.061 C11.304,48.666 11.468,49.798 10.690,50.624 C10.400,50.933 10.085,51.224 9.778,51.522 C7.320,53.940 4.858,56.356 2.396,58.772 C1.732,59.426 1.072,60.080 0.390,60.756 C0.437,60.891 0.480,61.029 0.534,61.160 C1.318,63.071 3.315,64.524 5.400,64.399 C6.104,64.361 6.839,64.185 7.502,63.952 C8.523,63.597 9.600,63.485 10.640,63.215 C11.651,62.952 12.642,62.576 13.591,62.141 C13.719,62.080 13.852,62.028 13.993,61.965 C14.100,62.931 13.581,63.747 13.301,64.634 C13.035,65.472 12.852,66.332 12.789,67.207 C12.653,69.059 12.931,70.926 12.647,72.773 C12.450,74.079 11.950,75.341 11.062,76.330 C11.197,76.284 11.326,76.255 11.441,76.195 C12.377,75.724 13.335,75.290 14.243,74.766 C15.903,73.803 17.477,72.720 18.768,71.259 C21.788,67.843 23.334,63.852 23.421,59.294 C23.455,57.495 23.179,55.726 22.647,54.006 C22.560,53.732 22.580,53.508 22.711,53.247 C23.574,51.554 24.224,49.780 24.683,47.930 C24.713,47.807 24.730,47.679 24.749,47.554 C24.694,47.542 24.666,47.529 24.645,47.535 C24.520,47.575 24.393,47.615 24.268,47.663 C22.689,48.269 21.179,49.016 19.753,49.932 C19.287,50.232 18.788,49.851 18.332,49.712 C17.857,49.574 17.394,49.480 16.904,49.406 C17.421,49.040 17.971,48.745 18.523,48.433 C19.643,47.801 20.804,47.248 22.008,46.810 C23.212,46.372 24.445,46.011 25.698,45.768 C26.413,45.630 27.137,45.517 27.859,45.437 C28.428,45.373 28.998,45.351 29.562,45.260 C31.881,44.896 34.104,44.217 36.265,43.284 C40.120,41.623 43.401,39.195 46.082,35.947 C47.196,34.595 48.133,33.127 48.994,31.603 C49.776,30.228 50.391,28.787 50.817,27.261 C50.981,26.661 51.081,26.050 50.913,25.439 C50.867,25.817 50.860,26.209 50.780,26.583 Z"/>
</svg>