<?xml version="1.0" encoding="utf-8"?>
<!-- Generator: Adobe Illustrator 21.1.0, SVG Export Plug-In . SVG Version: 6.00 Build 0)  -->
<svg version="1.1" id="圖層_1" xmlns="http://www.w3.org/2000/svg" xmlns:xlink="http://www.w3.org/1999/xlink" x="0px" y="0px"
	 viewBox="0 0 51 77" style="enable-background:new 0 0 51 77;" xml:space="preserve">
<style type="text/css">
	.st0{fill:#FFFFFF;}
</style>
<path class="st0" d="M50.8,26.6c-0.4,1.7-2,2.5-3.3,2.3c-1.7-0.2-2.6-1.6-2.5-3.2c0-0.6,0.2-1.2,0.2-1.8c0-1.9-0.9-3.7-2.2-5.1
	c-0.4-0.4-0.7-0.7-1.1-1c-2.1-1.6-3.8-3.6-4.2-6.2c-0.1-0.7-0.2-1.5-0.1-2.2c0.1-1.8,0.7-3.6,1.8-5.1c1-1.3,2.3-2.5,3.8-3.2
	c0.8-0.4,1.8-0.7,2.7-0.8c-5.2,0.4-9.4,4.8-9.4,10.2c0,0.6,0.1,1.3,0.2,1.9c0.1,0.6,0.2,1.3,0.4,1.9c0.6,1.9,0.9,3.9,1,5.9
	c0.1,2.4-0.1,4.7-0.6,7c-1.2,5.2-3.8,9.6-7.8,13.2c-3.4,3.1-7.4,5-12,5.9c-1.6,0.3-3.2,0.3-4.8-0.1c-3.7-0.9-5.8-4.4-5.3-7.9
	c0.3-2,0.8-3.9,1.5-5.7c1.6-3.8,4.2-7,7.5-9.5c0.9-0.7,1.9-1.3,2.9-1.8c1-0.5,2-1,3-1.5c0,0,0,0,0,0c-0.2,0.1-0.4,0.1-0.6,0.2
	c-2.4,0.9-4.6,2.2-6.6,3.8c-2.6,2.1-4.8,4.6-6.5,7.5C7.4,33.7,6.3,36.2,6,39c-0.1,1-0.1,2.1,0.1,3.1c0.6,2.5,2,4.5,4.2,5.9
	c1,0.6,1.1,1.7,0.3,2.6c-0.3,0.3-0.6,0.6-0.9,0.9c-2.5,2.4-4.9,4.8-7.4,7.3c-0.7,0.7-1.3,1.3-2,2c0,0.1,0.1,0.3,0.1,0.4
	c0.8,1.9,2.8,3.4,4.9,3.2c0.7,0,1.4-0.2,2.1-0.4c1-0.4,2.1-0.5,3.1-0.7c1-0.3,2-0.6,3-1.1c0.1-0.1,0.3-0.1,0.4-0.2
	c0.1,1-0.4,1.8-0.7,2.7c-0.3,0.8-0.4,1.7-0.5,2.6c-0.1,1.9,0.1,3.7-0.1,5.6c-0.2,1.3-0.7,2.6-1.6,3.6c0.1,0,0.3-0.1,0.4-0.1
	c0.9-0.5,1.9-0.9,2.8-1.4c1.7-1,3.2-2,4.5-3.5c3-3.4,4.6-7.4,4.7-12c0-1.8-0.2-3.6-0.8-5.3c-0.1-0.3-0.1-0.5,0.1-0.8
	c0.9-1.7,1.5-3.5,2-5.3c0-0.1,0-0.3,0.1-0.4c-0.1,0-0.1,0-0.1,0c-0.1,0-0.3,0.1-0.4,0.1c-1.6,0.6-3.1,1.4-4.5,2.3
	c-0.5,0.3-1-0.1-1.4-0.2c-0.5-0.1-0.9-0.2-1.4-0.3c0.5-0.4,1.1-0.7,1.6-1c1.1-0.6,2.3-1.2,3.5-1.6c1.2-0.4,2.4-0.8,3.7-1
	c0.7-0.1,1.4-0.3,2.2-0.3c0.6-0.1,1.1-0.1,1.7-0.2c2.3-0.4,4.5-1,6.7-2c3.9-1.7,7.1-4.1,9.8-7.3c1.1-1.4,2.1-2.8,2.9-4.3
	c0.8-1.4,1.4-2.8,1.8-4.3c0.2-0.6,0.3-1.2,0.1-1.8C50.9,25.8,50.9,26.2,50.8,26.6z"/>
</svg>
